<?xml version="1.0" standalone="no"?>
<!DOCTYPE svg PUBLIC "-//W3C//DTD SVG 20010904//EN"
 "http://www.w3.org/TR/2001/REC-SVG-20010904/DTD/svg10.dtd">
<svg version="1.0" xmlns="http://www.w3.org/2000/svg"
 width="1918.000000pt" height="876.000000pt" viewBox="0 0 1918.000000 876.000000"
 preserveAspectRatio="xMidYMid meet">

<g transform="translate(0.000000,876.000000) scale(0.100000,-0.100000)"
fill="#000000" stroke="none">
<path d="M0 5464 l0 -3296 38 5 c20 4 89 11 152 17 63 7 122 15 130 19 8 4 28
4 45 0 30 -9 197 5 231 18 34 13 -23 21 -121 17 l-90 -4 48 14 c27 8 75 15
108 15 33 0 63 2 67 5 4 2 44 7 87 11 44 3 92 11 108 17 15 6 42 8 61 5 18 -3
78 1 132 9 176 27 184 27 184 15 0 -6 -6 -11 -14 -11 -21 0 -30 -19 -12 -26 8
-3 29 4 46 16 23 17 39 21 64 16 20 -4 44 -1 62 9 22 10 57 14 130 12 58 -2
117 2 142 10 24 7 56 10 72 6 19 -3 30 -1 30 6 0 6 7 11 15 11 8 0 15 -6 15
-12 0 -9 4 -8 10 2 17 26 11 30 -37 31 l-48 2 50 7 c28 4 59 6 70 4 11 -2 27
0 35 6 12 7 13 13 3 29 -11 17 -9 19 28 23 41 4 53 -6 18 -17 -11 -4 -18 -12
-16 -18 7 -23 55 -18 109 12 71 40 145 59 253 67 50 3 93 8 96 10 4 2 43 -1
87 -7 77 -11 81 -11 103 10 23 21 23 23 7 35 -25 18 -23 22 13 35 38 13 79 14
79 3 0 -16 90 -12 123 5 18 9 37 17 42 18 22 2 95 29 95 34 0 4 8 7 18 8 26 2
45 8 70 22 15 8 34 10 50 5 15 -4 37 -6 50 -5 12 1 25 -4 28 -12 6 -15 38 -12
61 5 7 5 17 7 22 4 5 -4 14 2 20 11 6 10 11 14 11 9 0 -5 7 -3 15 4 8 6 50 14
95 17 66 5 80 3 80 -9 0 -8 -5 -19 -12 -26 -17 -17 18 -16 68 2 22 7 45 11 52
9 7 -3 12 4 12 17 0 16 4 20 15 16 8 -3 15 -1 15 4 0 6 -6 10 -14 10 -8 0 -21
3 -29 6 -8 3 -21 -1 -28 -8 -14 -13 -59 -23 -59 -12 0 11 39 46 47 41 5 -3 35
1 68 9 79 18 83 18 87 -8 3 -22 16 -25 72 -19 4 1 1 12 -8 26 -16 24 -15 25
11 31 21 6 30 2 41 -14 11 -17 25 -22 56 -22 23 0 46 4 52 10 5 5 27 12 49 15
22 3 69 14 105 24 36 11 92 25 125 32 33 7 67 18 76 26 9 7 19 10 22 6 4 -3 7
-1 7 5 0 8 7 9 24 2 13 -5 26 -6 29 -3 11 11 -18 59 -60 100 -33 33 -43 50
-43 75 0 31 -2 33 -36 34 -39 1 -55 18 -64 68 -8 46 -24 41 -44 -14 -15 -40
-22 -50 -41 -50 -20 0 -27 11 -48 75 -24 71 -25 75 -7 75 13 0 23 -15 37 -57
l19 -57 13 47 c16 55 10 66 -46 89 -21 9 -76 32 -123 52 -139 58 -363 144
-395 152 -16 4 -60 25 -97 46 -63 37 -70 39 -102 28 -48 -15 -75 -5 -92 36
-14 32 -17 34 -64 34 l-50 0 0 -35 c0 -24 -5 -35 -15 -35 -11 0 -15 11 -15 38
0 32 -5 41 -25 50 -41 19 -45 15 -45 -38 0 -43 -3 -50 -20 -50 -18 0 -20 7
-20 65 0 50 -3 65 -14 65 -29 0 -46 -30 -46 -81 0 -42 -3 -49 -20 -49 -18 0
-20 7 -20 76 0 70 2 76 19 71 10 -2 25 -1 32 3 8 6 -1 12 -28 19 -22 6 -56 23
-76 38 -86 67 -113 90 -142 123 -16 19 -43 48 -58 64 -58 59 -68 103 -41 177
13 38 64 277 64 303 0 6 -15 -4 -32 -21 -39 -37 -99 -54 -158 -43 -91 17 -135
82 -135 200 0 61 4 82 23 112 44 70 145 97 227 59 45 -20 58 -34 84 -86 l18
-37 12 48 c7 27 23 90 36 139 35 133 65 269 65 296 0 12 -12 35 -27 51 l-27
28 24 25 c17 18 27 22 35 15 10 -8 14 -1 20 27 5 29 3 40 -11 50 -10 7 -21 13
-26 13 -12 0 -38 57 -38 84 0 34 37 74 85 90 35 12 41 19 47 53 4 21 14 79 23
128 9 50 20 117 25 150 26 185 43 277 74 390 19 69 42 174 52 233 9 58 32 174
51 257 19 82 38 182 44 222 5 39 16 89 23 111 18 49 70 282 86 382 11 74 33
186 50 265 5 22 12 59 15 82 l7 42 -509 3 -508 3 -63 34 c-121 66 -184 168
-190 309 -3 68 -7 82 -21 82 -28 0 -203 94 -219 118 -8 12 -12 25 -9 29 3 3
36 -5 72 -18 76 -27 101 -20 99 27 -1 16 -5 104 -9 197 l-8 167 257 0 256 0 0
-104 c0 -57 3 -111 6 -120 5 -14 46 -16 356 -16 l350 0 -7 120 -8 120 47 0 46
0 2 -92 c1 -51 1 -105 0 -120 -2 -25 1 -28 28 -28 28 0 30 2 20 20 -8 16 -7
27 6 49 14 24 15 36 5 74 -6 25 -11 57 -11 71 l0 26 1074 0 1073 0 5 -112 c3
-79 9 -123 21 -145 9 -18 17 -41 17 -53 0 -11 7 -20 15 -20 8 0 15 -9 15 -19
0 -11 4 -22 9 -25 5 -3 7 -46 6 -96 -2 -49 1 -92 6 -95 25 -16 0 -105 -31
-105 -4 0 -10 -60 -13 -132 -10 -261 -36 -570 -62 -743 -22 -143 -29 -298 -15
-325 10 -19 17 -21 47 -15 35 6 93 53 93 74 0 6 9 11 20 11 11 0 20 7 20 15 0
24 49 115 65 121 8 3 28 26 45 52 24 37 30 56 30 102 0 63 30 191 56 242 9 18
27 43 40 55 13 12 24 29 24 37 0 8 4 17 9 20 4 3 12 66 15 141 7 126 20 184
46 200 4 3 14 29 21 57 12 53 62 128 84 128 17 0 45 33 45 53 0 9 7 17 15 17
10 0 15 10 15 28 2 201 35 363 75 379 14 5 16 14 10 50 -4 30 -2 49 7 60 10
13 10 17 0 20 -6 3 -12 9 -12 14 0 5 56 9 126 9 115 0 125 -2 121 -17 -3 -10
-9 -40 -13 -68 -7 -49 -10 -63 -13 -67 -1 -2 -4 -32 -6 -68 -8 -116 -13 -147
-24 -167 -6 -12 -8 -42 -4 -72 4 -38 2 -51 -7 -51 -10 0 -10 -3 0 -15 16 -20
40 -19 40 1 0 9 5 12 12 8 7 -4 8 -3 4 4 -4 7 -4 18 1 25 9 14 11 30 16 112 5
77 26 160 47 183 18 19 11 62 -10 62 -14 0 -3 41 14 53 8 6 8 10 -1 14 -15 5
-18 53 -4 53 5 0 12 -8 16 -17 6 -17 7 -17 19 0 7 9 19 17 26 17 7 0 19 -8 26
-17 12 -17 13 -16 14 5 0 22 2 22 140 22 l139 0 -5 -67 c-3 -38 -7 -117 -10
-178 -2 -60 -9 -121 -14 -135 -5 -14 -12 -70 -14 -125 -6 -104 -12 -161 -21
-175 -3 -4 -7 -46 -10 -91 -7 -96 -20 -188 -35 -239 -5 -19 -10 -55 -10 -80
-1 -25 -8 -63 -16 -85 -56 -152 -77 -233 -96 -375 -15 -111 -28 -170 -46 -209
-16 -34 -26 -77 -28 -113 -2 -31 -9 -68 -16 -80 -7 -13 -11 -26 -10 -30 1 -5
-3 -8 -8 -8 -6 0 -10 -11 -10 -24 0 -13 -7 -40 -15 -60 -8 -20 -20 -64 -25
-99 -5 -34 -12 -71 -14 -82 -2 -11 -7 -38 -10 -60 -10 -53 -35 -133 -53 -168
-8 -15 -25 -69 -37 -120 -13 -50 -38 -134 -55 -184 -32 -93 -61 -227 -61 -273
0 -14 8 -34 17 -45 15 -20 15 -20 10 3 -4 19 -3 21 9 11 11 -9 14 -8 14 4 0 8
-6 18 -12 21 -10 5 -10 7 0 12 6 3 12 20 12 37 1 30 38 174 39 152 2 -20 29
32 34 65 3 19 17 82 31 140 36 145 44 188 47 240 2 41 23 84 56 118 7 7 13 24
13 37 0 14 9 41 19 62 13 26 20 63 22 113 1 41 10 98 20 125 17 49 26 85 35
133 3 13 20 46 39 74 28 40 35 60 35 97 0 25 4 62 10 81 14 53 40 238 40 289
0 25 8 66 16 91 32 90 51 178 41 196 -6 11 -6 15 1 10 15 -9 22 18 22 84 0 66
8 99 20 80 5 -7 11 9 15 38 4 28 13 56 21 63 17 14 19 89 3 89 -17 0 -4 187
14 217 4 6 3 14 -2 17 -9 6 -2 148 8 156 4 3 7 29 6 59 0 35 4 55 13 58 7 3
10 14 7 24 -15 56 -16 64 -6 49 8 -12 11 -7 11 23 l0 37 905 0 c690 0 909 -3
919 -12 7 -7 10 -23 8 -36 -3 -14 1 -28 9 -34 11 -7 11 -11 2 -15 -7 -2 -13
-18 -13 -34 0 -18 4 -28 10 -24 6 3 10 -5 10 -19 0 -14 -3 -27 -8 -29 -12 -8
-2 -149 11 -144 6 2 14 14 18 28 6 20 7 21 9 4 1 -19 2 -19 12 2 11 24 56 38
87 28 14 -4 21 0 24 12 4 14 5 13 6 -4 1 -28 6 -28 38 -3 20 15 22 21 11 25
-10 4 -13 15 -10 32 5 25 4 26 -32 19 l-36 -7 0 40 0 40 27 -14 c34 -18 45 -8
45 39 0 29 4 36 19 36 12 0 19 7 19 20 0 11 5 20 10 20 6 0 10 7 10 15 0 13
268 15 2350 15 l2351 0 -15 -27 c-7 -16 -17 -44 -21 -63 -4 -19 -11 -41 -16
-50 -4 -8 -18 -49 -30 -90 -11 -41 -35 -113 -51 -160 -41 -117 -42 -120 -29
-120 6 0 11 -8 11 -17 0 -34 17 4 55 122 21 66 48 143 60 170 12 28 37 92 56
142 l34 93 113 0 c65 0 111 -4 108 -9 -8 -12 3 -41 15 -41 5 0 14 11 19 24 l9
25 281 0 280 1 0 -23 c0 -17 -2 -19 -10 -7 -8 12 -10 12 -16 -3 -3 -9 -3 -25
2 -35 4 -9 8 -20 8 -24 1 -3 4 -9 7 -13 10 -9 2 -126 -11 -159 -9 -24 -7 -31
7 -42 10 -7 13 -14 7 -14 -8 0 -10 -16 -7 -47 2 -27 6 -85 8 -131 2 -46 6 -86
9 -89 3 -4 6 3 6 14 0 19 6 21 78 21 42 0 83 -5 90 -10 6 -6 12 -30 12 -54 0
-37 -3 -44 -20 -44 -17 0 -20 7 -20 41 0 52 -24 48 -28 -4 -3 -29 -7 -37 -23
-37 -16 0 -19 7 -19 40 0 29 -4 40 -15 40 -11 0 -15 -11 -15 -40 0 -33 -3 -40
-20 -40 -15 0 -20 7 -21 28 -1 20 -2 22 -6 7 -3 -11 -9 -24 -14 -29 -4 -5 -4
-17 1 -27 5 -9 9 -37 9 -61 -1 -72 1 -87 11 -93 16 -10 12 -25 -5 -19 -10 4
-15 0 -15 -15 0 -12 4 -21 8 -21 4 0 8 -9 9 -20 1 -11 -3 -20 -9 -20 -6 0 -6
-6 2 -15 13 -16 35 -21 25 -6 -9 15 15 25 28 12 9 -9 8 -14 -3 -21 -12 -8 -13
-12 -2 -19 11 -6 9 -9 -6 -13 -11 -3 -26 -16 -33 -29 -11 -22 -11 -23 4 -10
15 12 17 11 17 -6 0 -11 -3 -22 -6 -25 -10 -10 -44 4 -44 18 0 8 -9 14 -20 14
-11 0 -20 5 -20 10 0 6 -11 10 -25 10 -16 0 -25 -6 -25 -15 0 -8 5 -15 11 -15
7 0 10 -12 7 -29 -3 -21 -1 -28 9 -24 17 7 17 -18 -1 -42 -8 -11 -12 -25 -9
-31 2 -7 0 -15 -5 -18 -13 -8 0 -58 15 -63 7 -3 21 5 32 16 14 14 23 17 27 9
4 -6 0 -16 -8 -22 -8 -6 -13 -17 -10 -25 4 -12 -20 -110 -38 -156 -32 -77 -37
-115 -16 -115 20 0 31 21 16 30 -15 9 -7 26 19 39 14 8 17 6 17 -7 -1 -9 4
-18 9 -19 6 -1 9 4 7 11 -1 7 5 19 14 27 14 12 15 8 9 -37 -4 -27 -14 -65 -22
-84 -8 -19 -17 -53 -19 -75 -3 -22 -7 -47 -10 -54 -12 -34 -15 -103 -5 -96 6
3 11 13 11 21 0 9 6 14 12 11 8 -2 12 -16 10 -36 -2 -18 1 -37 6 -44 5 -7 13
-30 17 -52 6 -38 29 -75 46 -75 4 0 11 9 14 21 4 11 9 19 11 16 2 -2 -1 -18
-7 -36 -9 -24 -9 -35 0 -44 6 -6 11 -28 11 -49 0 -21 4 -38 9 -38 4 0 6 -11 3
-25 -3 -19 0 -25 13 -25 12 0 15 -4 8 -12 -5 -7 -8 -38 -7 -68 0 -30 2 -89 3
-130 1 -46 5 -70 10 -61 5 8 11 9 15 3 3 -6 2 -13 -4 -17 -5 -3 -10 -11 -10
-16 0 -6 5 -7 11 -3 6 3 16 0 21 -7 7 -11 8 -9 4 5 -4 11 1 27 11 38 12 13 18
38 19 72 1 29 4 58 8 65 4 6 2 11 -3 11 -6 0 -11 5 -11 10 0 6 6 10 14 10 18
0 30 -44 27 -102 -2 -30 1 -48 8 -48 6 0 11 11 11 25 0 18 4 23 15 19 9 -4 15
-19 15 -35 0 -16 4 -29 10 -29 5 0 7 -6 4 -14 -3 -8 -12 -12 -20 -9 -19 7 -18
-16 3 -39 16 -18 16 -18 0 -12 -11 4 -17 1 -17 -9 0 -19 24 -29 39 -14 6 6 11
19 11 29 0 10 4 18 9 18 13 0 22 -30 14 -43 -4 -7 -8 -18 -9 -27 -12 -78 -15
-114 -8 -108 11 11 26 105 29 182 1 37 7 71 12 75 16 10 33 48 33 75 0 14 4
27 10 31 5 3 8 -37 6 -105 -2 -60 0 -110 4 -110 10 0 32 103 32 152 0 36 1 38
26 31 21 -5 24 -3 19 11 -4 10 -7 20 -7 22 0 2 -7 4 -16 4 -11 0 -14 5 -10 16
3 9 6 17 6 19 0 2 9 1 19 -2 12 -3 17 -11 14 -19 -3 -8 0 -14 6 -14 6 0 10 3
10 8 -3 18 2 32 11 32 6 0 8 -10 5 -22 -3 -13 -7 -41 -8 -64 -2 -32 0 -41 12
-40 9 1 16 -6 17 -14 2 -32 4 -33 19 -14 14 18 14 17 15 -13 0 -45 16 -42 25
5 4 20 11 42 17 49 6 8 6 19 -2 32 -6 11 -10 56 -10 98 1 43 -8 141 -19 218
-12 77 -23 203 -26 280 -3 77 -8 151 -11 165 -3 14 -5 78 -5 142 0 65 -3 138
-8 163 -5 29 -5 45 2 45 5 0 4 7 -3 15 -10 12 -10 22 -2 40 6 13 8 40 5 59 -3
21 -1 36 4 36 12 0 5 49 -9 67 -6 8 -6 31 1 63 6 28 11 67 11 86 0 23 4 33 11
28 8 -4 9 3 4 24 -8 40 10 50 28 16 21 -40 27 -16 11 45 -12 49 -12 55 4 67
16 12 15 13 -5 14 -21 0 -23 5 -23 55 0 48 3 55 19 55 11 0 22 -7 24 -15 4
-11 4 -10 3 2 -1 10 -11 19 -24 21 -24 4 -31 32 -7 32 18 0 18 0 1 75 -8 33
-13 62 -11 64 2 2 7 -8 11 -23 9 -38 38 -35 32 4 -2 16 0 32 6 34 8 3 8 7 0
13 -6 4 -14 38 -18 76 -8 82 11 93 37 20 11 -34 15 -38 11 -15 -3 19 -1 32 5
32 6 0 11 -6 11 -13 0 -7 9 -30 20 -52 11 -22 20 -48 20 -58 0 -17 26 -77 34
-77 10 0 -53 215 -73 251 -5 9 -12 38 -16 65 -10 68 7 47 35 -46 13 -41 36
-98 51 -126 15 -29 25 -55 22 -58 -3 -3 -1 -11 5 -18 5 -7 18 -39 27 -70 9
-32 21 -58 26 -58 12 0 11 43 -2 77 -6 15 -12 55 -14 89 -3 54 -30 157 -71
267 -17 44 -17 57 -4 57 6 0 10 -11 10 -25 0 -14 9 -34 19 -44 11 -11 17 -22
14 -25 -3 -3 2 -12 11 -22 11 -10 14 -24 10 -38 -4 -11 -3 -18 1 -14 12 11 35
-11 35 -33 0 -10 8 -22 17 -28 10 -5 15 -13 11 -16 -4 -4 -2 -19 4 -34 14 -36
20 -63 20 -84 -1 -10 6 -21 14 -24 8 -3 14 -10 14 -15 0 -6 -7 -8 -15 -4 -8 3
-15 1 -15 -4 0 -6 6 -10 13 -10 8 0 19 -12 26 -27 8 -16 17 -35 22 -44 4 -9 5
-26 2 -38 -4 -18 -1 -21 24 -21 16 0 34 -5 41 -12 18 -18 15 -87 -4 -95 -11
-4 -14 -13 -9 -30 5 -22 4 -23 -16 -13 -18 10 -20 9 -15 -7 14 -44 38 -140 42
-164 2 -14 8 -37 13 -51 8 -21 7 -28 -6 -32 -25 -10 -43 13 -38 49 2 22 -1 38
-11 46 -19 16 -30 4 -14 -16 8 -10 9 -15 1 -15 -6 0 -11 -16 -11 -35 0 -23 4
-33 13 -30 11 5 37 -55 37 -85 0 -6 8 -30 19 -53 26 -59 34 -87 23 -87 -5 0
-14 17 -21 38 -7 21 -22 49 -33 62 l-19 25 6 -39 c3 -21 10 -46 14 -55 21 -41
31 -86 21 -89 -6 -2 -3 -10 7 -18 12 -9 13 -13 5 -14 -7 0 -10 -5 -7 -10 4 -6
10 -8 15 -5 4 3 15 -6 24 -20 9 -14 12 -25 6 -25 -12 0 -6 -49 15 -115 23 -71
27 -95 16 -95 -5 0 -12 12 -16 28 -11 46 -75 172 -86 172 -6 0 -9 7 -6 15 9
21 -47 149 -65 153 -14 3 -15 -3 -6 -40 6 -24 17 -50 24 -59 8 -8 14 -21 14
-27 0 -7 9 -31 19 -55 11 -23 23 -53 27 -67 3 -13 18 -33 31 -43 13 -11 22
-26 19 -33 -3 -8 -1 -14 4 -14 6 0 10 -6 10 -14 0 -8 11 -47 25 -88 27 -80 33
-120 14 -101 -7 7 -22 49 -34 95 -19 72 -25 83 -43 80 -15 -2 -22 4 -27 27 -7
31 -25 53 -25 30 0 -7 -11 -2 -24 10 -14 13 -29 20 -35 16 -6 -3 -11 -2 -11 3
0 6 -6 12 -14 15 -21 8 -3 -67 34 -141 17 -34 29 -66 26 -71 -3 -4 4 -25 14
-47 11 -21 20 -46 20 -55 0 -9 6 -22 14 -28 8 -6 16 -26 19 -44 8 -51 13 -65
60 -167 14 -31 31 -77 38 -103 6 -26 15 -50 20 -53 5 -3 9 -15 9 -28 0 -12 3
-26 7 -30 16 -16 31 -86 20 -93 -6 -4 -13 -1 -15 5 -6 18 -32 14 -32 -5 0 -9
6 -24 13 -32 28 -33 37 -69 22 -81 -10 -8 -13 -21 -8 -38 5 -20 3 -23 -8 -17
-8 5 -7 0 4 -12 9 -11 17 -32 17 -48 0 -15 8 -34 18 -41 17 -14 14 -20 -23
-39 -6 -3 -5 -7 3 -11 14 -7 16 -40 2 -49 -10 -6 -60 96 -60 124 0 9 -7 26
-15 39 -12 16 -13 27 -6 41 7 12 7 30 1 52 -8 25 -7 35 4 41 11 6 11 15 -2 53
-14 43 -13 47 4 59 16 12 17 17 6 41 -7 14 -9 32 -5 38 5 8 2 8 -9 0 -8 -7
-18 -10 -21 -6 -4 3 -7 1 -7 -5 0 -6 4 -13 9 -16 5 -3 7 -15 4 -27 -6 -23 -4
-26 -53 66 -25 47 -51 76 -35 39 9 -22 18 -75 9 -56 -3 6 -16 12 -29 12 -20 0
-23 -4 -19 -24 2 -14 -3 -31 -11 -40 -16 -16 -20 -46 -6 -46 5 0 14 -14 20
-31 7 -20 16 -29 28 -27 13 2 17 -3 15 -18 -1 -12 4 -27 13 -34 8 -7 15 -21
15 -31 0 -11 4 -19 9 -19 5 0 11 -18 15 -39 3 -22 11 -41 17 -43 6 -2 11 -16
11 -32 0 -18 5 -26 13 -22 8 3 15 -8 18 -28 3 -19 15 -54 26 -79 12 -25 21
-51 21 -56 0 -6 5 -11 10 -11 6 0 10 -7 10 -15 0 -9 7 -18 15 -21 8 -4 15 -12
15 -20 0 -8 -7 -14 -15 -14 -8 0 -15 9 -15 19 0 10 -7 22 -16 25 -9 4 -14 9
-11 12 3 4 -4 21 -17 38 -12 17 -30 51 -40 76 -21 52 -22 54 -59 112 -16 23
-40 61 -53 83 l-25 40 6 -32 c5 -23 3 -33 -6 -33 -10 0 -10 -3 -1 -12 7 -7 12
-18 12 -25 0 -7 14 -32 30 -55 17 -22 30 -47 30 -55 0 -7 7 -16 15 -19 8 -4
15 -16 15 -29 0 -12 9 -34 20 -48 11 -14 19 -29 18 -34 -1 -4 3 -18 10 -29 6
-12 14 -41 18 -65 3 -24 15 -56 25 -71 20 -29 25 -68 9 -68 -5 0 -18 17 -27
37 -24 50 -44 55 -36 9 4 -27 2 -37 -11 -42 -11 -4 -13 -11 -6 -23 5 -10 6
-27 3 -39 -3 -15 0 -24 11 -28 11 -4 15 -13 11 -25 -4 -11 -2 -19 4 -19 6 0
11 -9 11 -20 0 -11 4 -28 9 -38 15 -29 41 -90 41 -97 0 -16 33 -75 39 -71 9 6
35 -83 27 -91 -3 -3 -14 1 -24 11 -11 9 -26 14 -36 10 -13 -5 -16 0 -16 26 0
20 -7 38 -17 46 -11 8 -13 13 -5 14 22 0 13 40 -13 52 -13 6 -26 18 -28 27 -2
9 -3 -5 -2 -30 4 -71 15 -108 40 -135 21 -23 35 -64 35 -105 0 -13 -7 -19 -22
-19 l-22 0 22 -16 c26 -18 29 -39 5 -30 -17 6 -17 5 0 -8 24 -19 23 -50 -3
-43 -27 7 -27 -26 -1 -52 11 -11 17 -21 15 -24 -9 -9 19 -57 34 -57 8 0 12 -6
8 -15 -3 -9 4 -21 19 -31 22 -14 24 -21 19 -67 -3 -29 -1 -47 3 -41 13 18 43
12 43 -9 0 -13 -5 -17 -15 -13 -8 3 -15 1 -15 -4 0 -16 -27 -11 -34 6 -5 13
-9 14 -21 4 -13 -10 -12 -15 8 -30 12 -10 19 -21 16 -24 -13 -13 -35 6 -54 47
-25 52 -49 64 -32 15 7 -18 18 -37 25 -41 6 -4 12 -14 12 -21 0 -8 16 -31 35
-52 38 -43 42 -54 20 -54 -8 0 -15 -7 -15 -15 0 -8 -6 -15 -14 -15 -12 0 -12
-4 0 -30 18 -34 20 -35 40 -16 18 19 18 24 -2 28 -14 3 -13 6 5 22 20 18 20
18 32 -7 9 -20 8 -29 -6 -51 -20 -30 -15 -59 19 -99 29 -36 40 -18 21 35 -12
36 -12 37 10 22 12 -8 28 -25 35 -39 26 -48 35 -27 13 31 -2 6 8 15 23 18 24
6 26 10 21 41 -3 19 -2 35 4 35 5 0 9 -4 9 -9 0 -7 51 -31 66 -31 2 0 4 23 4
52 0 35 -8 68 -26 105 -15 29 -24 56 -21 59 3 4 -3 15 -14 27 -10 11 -19 30
-19 42 0 11 -4 25 -9 31 -15 15 -69 165 -75 209 -7 47 7 80 24 55 9 -14 14
-42 11 -67 -1 -6 10 -29 24 -49 15 -22 22 -40 16 -42 -6 -2 -11 -8 -11 -13 0
-6 42 -103 55 -126 5 -10 45 13 46 26 0 11 3 10 9 -5 5 -12 9 -75 11 -140 2
-108 11 -180 37 -300 11 -52 19 -64 41 -64 20 0 41 -19 41 -37 0 -7 -6 -13
-14 -13 -20 0 -26 -33 -10 -55 8 -10 14 -25 14 -32 0 -19 -26 -5 -40 23 -17
31 -26 30 -45 -6 -10 -20 -20 -27 -31 -23 -8 3 -33 0 -53 -7 -48 -16 -107 1
-123 34 -7 17 -16 22 -34 18 -19 -3 -24 0 -24 16 0 27 -21 42 -48 35 -14 -3
-22 -13 -22 -27 -1 -20 -1 -20 -15 -2 -12 15 -17 17 -29 7 -8 -7 -23 -11 -33
-9 -11 2 -22 -5 -28 -17 -6 -12 -21 -20 -35 -20 -19 -1 -25 -6 -23 -20 2 -29
39 -125 52 -138 6 -6 11 -19 11 -29 0 -9 5 -30 11 -45 22 -55 27 -69 40 -123
18 -77 19 -110 9 -230 -6 -58 -12 -157 -15 -220 -3 -63 -10 -160 -15 -215 -5
-55 -12 -138 -15 -185 -4 -46 -13 -100 -21 -118 -8 -19 -14 -47 -14 -62 0 -15
-7 -33 -15 -40 -8 -7 -15 -21 -15 -31 0 -10 -4 -20 -9 -23 -5 -3 -11 -18 -14
-32 -3 -20 2 -34 20 -52 21 -21 24 -31 19 -64 -4 -22 -13 -50 -22 -63 -9 -13
-18 -39 -21 -57 -3 -18 -8 -35 -12 -38 -4 -3 -10 -12 -13 -21 -4 -9 -22 -18
-45 -22 -35 -5 -102 -32 -148 -60 -64 -39 -85 -60 -96 -98 -7 -23 -24 -48 -40
-60 l-28 -19 -15 22 c-32 45 -17 77 49 111 17 8 41 25 54 38 36 34 8 42 -76
23 -99 -24 -113 -31 -113 -55 0 -12 -8 -23 -20 -26 -11 -3 -20 -9 -20 -14 0
-15 -37 -10 -51 7 -11 14 -10 21 4 46 16 28 16 29 -1 24 -9 -2 -36 -8 -59 -11
-24 -4 -61 -15 -82 -26 -22 -10 -49 -19 -61 -19 -11 0 -20 -4 -20 -10 0 -5 -7
-10 -15 -10 -8 0 -19 -9 -25 -19 -5 -11 -18 -27 -27 -36 -16 -16 -16 -18 1
-30 25 -19 17 -58 -14 -66 -25 -7 -20 -9 30 -15 14 -2 47 -8 73 -14 36 -9 51
-9 62 0 14 12 49 1 57 -18 3 -8 90 -36 148 -49 14 -3 29 -12 33 -19 6 -10 12
-11 25 -3 20 13 92 -12 92 -31 0 -6 -5 -8 -11 -4 -8 4 -9 0 -4 -15 5 -16 2
-21 -10 -21 -26 0 -12 -25 16 -28 59 -7 69 -12 69 -37 0 -17 8 -29 25 -37 14
-6 25 -19 25 -30 0 -10 7 -18 16 -18 9 0 28 -8 42 -19 15 -10 32 -20 38 -22
18 -6 154 -132 154 -142 0 -5 -10 -6 -22 -3 -49 15 -58 14 -70 -3 -23 -31 -37
-33 -71 -9 -17 12 -34 26 -35 30 -11 26 -34 38 -54 27 -19 -10 -19 -11 -1 -31
10 -11 29 -25 43 -31 25 -10 25 -10 -12 -19 -43 -11 -49 -32 -20 -66 24 -27
75 -32 100 -9 40 36 48 20 26 -54 -2 -9 5 -26 16 -39 29 -34 25 -42 -17 -34
-71 13 -88 21 -85 36 7 41 -164 166 -191 139 -11 -11 16 -41 94 -104 15 -11
25 -26 23 -32 -3 -8 5 -10 26 -7 21 3 30 0 30 -10 0 -9 -13 -13 -40 -13 -27 0
-44 -6 -53 -19 -8 -10 -24 -19 -38 -20 -18 -1 -25 -7 -27 -28 -3 -23 -8 -28
-32 -28 -16 0 -31 3 -34 8 -3 5 -105 8 -125 3 -2 -1 4 -10 14 -21 20 -22 76
-27 119 -11 27 11 54 -8 41 -29 -11 -17 15 -40 45 -40 19 0 37 11 58 34 23 26
39 35 68 36 57 4 64 2 64 -19 0 -11 14 -31 30 -44 16 -14 30 -30 30 -35 0 -12
-34 -22 -75 -22 -27 0 -74 -19 -50 -20 6 0 17 -4 25 -10 26 -16 -24 -47 -90
-55 -51 -6 -60 -10 -69 -33 -10 -23 -17 -27 -49 -26 -50 2 -57 -15 -20 -48 24
-21 29 -32 24 -52 -5 -22 -2 -27 21 -32 15 -4 38 -17 51 -29 l24 -23 21 21
c19 19 21 19 33 3 7 -10 16 -17 21 -17 4 0 18 -7 30 -16 18 -14 19 -19 8 -30
-19 -18 -45 -16 -45 4 0 18 -10 12 -13 -9 -3 -17 -28 -52 -47 -63 -8 -5 -34
-10 -59 -12 -25 -1 -57 -7 -72 -13 -23 -10 -32 -8 -61 12 -18 12 -40 31 -49
41 -17 18 -119 57 -150 57 -35 0 -33 -23 6 -55 21 -18 35 -37 31 -43 -7 -12
21 -62 35 -62 4 0 30 -24 56 -52 26 -29 71 -75 98 -103 63 -62 165 -182 165
-194 0 -8 -152 -21 -282 -23 -68 -1 -98 11 -98 38 0 20 -129 144 -149 144 -24
0 -63 44 -59 66 2 15 -9 20 -69 30 -67 12 -206 54 -244 74 -9 5 -33 12 -53 15
-28 6 -36 4 -36 -8 0 -18 42 -47 69 -47 54 0 171 -95 171 -139 0 -39 23 -65
84 -95 56 -27 106 -62 106 -74 0 -4 -26 -8 -58 -9 -124 -3 -480 -37 -509 -48
-22 -8 -14 -50 15 -77 35 -32 52 -38 133 -48 87 -10 123 -28 127 -63 l3 -27
383 0 c262 0 385 3 393 11 8 8 13 8 17 0 4 -6 37 -11 76 -11 51 0 69 4 74 15
7 20 46 20 46 0 0 -13 67 -15 540 -15 413 0 540 3 540 12 0 9 3 9 12 0 7 -7
24 -12 39 -12 21 0 28 6 31 22 5 37 81 35 91 -2 5 -19 12 -21 69 -18 60 3 63
4 66 31 4 36 17 34 31 -3 13 -38 36 -38 56 0 18 34 35 31 35 -6 0 -19 5 -24
26 -24 17 0 28 6 31 20 3 11 9 20 13 20 5 0 6 -9 3 -20 -4 -17 0 -20 25 -20
17 0 34 5 37 10 8 13 52 13 60 0 4 -7 368 -10 1061 -10 l1054 0 0 1840 c0
1043 -4 1840 -9 1840 -5 0 -30 -12 -56 -27 -27 -15 -55 -28 -64 -29 -38 -5
-62 -18 -57 -29 7 -20 -4 -25 -28 -13 -19 10 -19 9 -8 -4 8 -11 9 -18 3 -22
-15 -10 -9 -64 7 -59 7 3 12 -3 12 -16 0 -12 3 -20 8 -19 11 2 42 -13 42 -22
0 -9 -175 -4 -190 5 -8 5 -100 23 -265 52 -16 3 -42 17 -57 32 -14 14 -37 26
-50 26 -18 0 -25 8 -32 38 -5 20 -13 37 -17 37 -4 0 -10 57 -14 127 -5 89 -13
139 -26 167 -10 23 -19 52 -19 66 -1 48 -13 55 -59 34 -22 -11 -41 -25 -41
-32 0 -9 -12 -11 -49 -6 -44 6 -50 4 -56 -15 -3 -11 -11 -21 -16 -21 -5 0 -9
-7 -9 -15 0 -22 -20 -18 -41 7 l-19 21 0 -26 c0 -23 -4 -27 -30 -27 -17 0 -30
-5 -30 -12 0 -9 -16 -12 -55 -10 -32 2 -55 0 -55 -6 0 -23 -126 -29 -150 -7
-22 20 -50 1 -50 -34 0 -28 -1 -28 -60 -27 l-60 1 0 -32 c0 -32 -2 -33 -39
-33 -23 0 -41 5 -44 13 -2 6 -7 -5 -11 -26 -4 -21 -13 -40 -21 -43 -7 -3 -16
-16 -19 -30 -9 -34 -26 -30 -26 6 0 39 -25 40 -38 1 -6 -16 -8 -32 -5 -35 4
-3 -10 -6 -29 -6 -31 0 -38 -4 -47 -30 -8 -24 -7 -30 5 -30 7 0 14 -4 14 -10
0 -5 -7 -10 -16 -10 -9 0 -22 -7 -28 -15 -10 -13 -79 -24 -186 -29 l-35 -1 3
100 c6 195 27 280 147 600 21 55 43 118 50 140 6 22 14 47 18 55 3 8 11 35 17
60 6 25 17 61 25 80 8 19 26 84 40 143 21 89 24 112 13 125 -7 10 -14 19 -15
21 -1 2 -9 -2 -18 -9 -9 -7 -26 -10 -42 -6 -82 20 -110 24 -140 19 -33 -6 -33
-6 -33 -62 0 -31 5 -99 10 -151 6 -52 13 -130 16 -173 4 -45 13 -82 20 -88 16
-14 19 -49 3 -49 -5 0 -7 -4 -4 -10 3 -5 2 -17 -3 -26 -7 -13 -11 -10 -16 17
-5 19 -10 28 -13 22 -10 -26 -30 -12 -43 28 -13 37 -12 43 3 54 9 7 17 18 17
26 0 11 2 11 11 -1 7 -12 9 -8 7 15 -2 17 -8 29 -15 28 -8 -2 -10 16 -6 60 3
49 2 58 -7 44 -6 -10 -10 -29 -8 -44 2 -14 -1 -28 -7 -30 -6 -2 -11 19 -12 46
-2 42 1 50 19 54 19 5 20 10 13 64 -4 32 -10 63 -15 68 -7 9 -13 36 -27 113
-4 27 -3 31 11 26 10 -4 17 -1 17 7 5 49 4 71 -3 75 -4 3 -7 41 -7 84 0 43 -3
85 -7 91 -4 7 -9 36 -10 63 -1 28 -5 78 -9 111 -4 33 -8 83 -10 110 -17 247
-25 334 -34 358 -13 35 -20 81 -27 187 -2 47 -7 96 -10 110 -19 91 -26 131
-31 178 -3 28 -8 50 -11 48 -12 -7 -12 57 -1 70 7 9 7 19 0 33 -6 11 -11 46
-10 78 1 32 -3 87 -9 123 -6 36 -18 115 -27 175 -10 61 -21 115 -27 122 -15
19 -33 224 -21 231 12 7 2 140 -17 237 -18 98 -29 192 -41 360 l-11 170 -35
39 c-61 67 -78 117 -78 231 0 117 17 165 84 238 23 25 39 51 37 58 -3 8 -10
64 -15 124 -6 61 -13 125 -17 143 -6 32 -6 32 34 32 39 0 42 -2 53 -41 11 -34
10 -42 -2 -50 -9 -6 -18 -3 -26 8 -11 14 -14 13 -23 -13 -9 -21 -9 -33 -1 -44
6 -8 18 -29 26 -47 8 -17 19 -34 25 -38 5 -3 10 -15 10 -26 0 -17 4 -19 23
-13 64 21 122 24 470 24 l377 0 1 38 c0 20 4 55 8 77 8 35 9 31 10 -37 l1 -78
295 0 c263 0 300 -2 344 -19 l48 -18 7 61 c4 34 7 96 6 138 l-1 78 378 3 c208
1 -3939 3 -9215 5 l-9592 2 0 -3296z m15370 3247 c5 -21 19 -50 30 -64 12 -15
21 -30 20 -34 0 -13 21 -72 36 -101 8 -15 14 -37 14 -49 0 -12 5 -25 10 -28
12 -7 13 -25 3 -25 -5 0 -16 20 -26 44 -14 34 -24 45 -48 50 -20 4 -29 11 -29
24 0 11 -10 32 -22 48 -12 16 -15 23 -7 17 9 -7 18 -10 22 -7 6 6 -6 52 -22
82 -6 12 -13 35 -15 52 -5 45 21 38 34 -9z m200 22 c0 -9 6 -24 14 -32 19 -21
32 -91 17 -91 -6 0 -11 9 -11 21 0 11 -4 18 -9 14 -11 -6 -34 29 -25 38 3 3
-3 10 -14 16 -11 6 -22 20 -25 31 -4 17 0 20 24 20 20 0 29 -5 29 -17z m67
-218 c8 -22 -6 -33 -17 -15 -13 20 -12 30 0 30 6 0 13 -7 17 -15z m-217 -29
c0 -2 -3 -11 -6 -20 -9 -23 -24 -20 -24 4 0 11 7 20 15 20 8 0 15 -2 15 -4z
m-885 -86 c3 -5 1 -10 -4 -10 -6 0 -11 5 -11 10 0 6 2 10 4 10 3 0 8 -4 11
-10z m-8198 -52 c-3 -8 -6 -5 -6 6 -1 11 2 17 5 13 3 -3 4 -12 1 -19z m-5357
-115 c0 -29 -47 -163 -57 -163 -7 0 -13 2 -13 4 0 4 36 124 45 154 5 13 25 17
25 5z m13862 -10 c17 -15 18 -15 18 0 0 10 8 17 20 17 18 0 20 -7 20 -75 0
-68 -2 -75 -20 -75 -11 0 -20 7 -20 15 0 13 -5 12 -28 -5 -70 -52 -148 44 -96
118 19 27 78 30 106 5z m108 2 c0 -8 -9 -15 -20 -15 -11 0 -20 7 -20 15 0 8 9
15 20 15 11 0 20 -7 20 -15z m1140 -5 c0 -14 7 -20 23 -20 34 0 47 -19 47 -67
0 -32 -4 -43 -15 -43 -10 0 -15 10 -15 34 0 38 -17 57 -31 35 -5 -8 -9 -26 -9
-41 0 -18 -5 -28 -15 -28 -12 0 -15 15 -15 75 0 60 3 75 15 75 8 0 15 -9 15
-20z m-15392 -2 c7 -7 12 -19 12 -27 0 -11 -4 -11 -19 3 -21 19 -52 18 -59 -2
-2 -8 12 -19 36 -29 43 -16 55 -33 45 -59 -13 -33 -84 -34 -105 -1 -14 22 5
28 24 7 23 -24 51 -23 56 2 2 12 -9 23 -35 35 -40 19 -52 45 -33 68 15 18 61
20 78 3z m66 -43 c9 -31 21 -53 25 -50 5 2 14 25 21 50 12 42 26 63 36 53 2
-3 -7 -36 -19 -74 -33 -95 -48 -95 -80 0 -18 54 -22 76 -13 76 7 0 20 -25 30
-55z m394 38 c-2 -12 -14 -19 -36 -21 -38 -4 -44 -22 -7 -22 16 0 25 -6 25
-15 0 -9 -9 -15 -25 -15 -16 0 -25 -6 -25 -15 0 -10 11 -15 35 -15 24 0 35 -5
35 -15 0 -12 -13 -15 -55 -15 l-55 0 0 75 0 75 56 0 c47 0 55 -3 52 -17z m71
-15 l21 -33 0 33 c0 27 3 32 25 32 24 0 25 -2 25 -75 0 -65 -2 -75 -17 -75
-10 0 -30 14 -45 32 l-27 33 -1 -32 c0 -26 -4 -33 -20 -33 -18 0 -20 7 -20 75
0 67 2 75 19 75 11 0 28 -15 40 -32z m206 10 c14 -21 14 -23 -2 -30 -17 -6
-17 -7 0 -7 13 -1 17 -10 17 -46 0 -40 -3 -45 -22 -45 -13 -1 -36 -1 -51 -1
-40 -1 -67 27 -67 70 0 54 23 81 70 81 29 0 43 -6 55 -22z m13515 -63 c0 -48
-2 -55 -20 -55 -18 0 -20 7 -20 55 0 48 2 55 20 55 18 0 20 -7 20 -55z m107
43 c19 -15 17 -98 -2 -98 -10 0 -15 10 -15 28 0 15 -4 33 -9 41 -14 22 -31 3
-31 -35 0 -27 -4 -34 -20 -34 -18 0 -20 7 -20 54 l0 54 42 0 c23 1 48 -4 55
-10z m583 -7 c24 -45 -7 -112 -44 -98 -10 4 -16 -1 -18 -16 -2 -12 -10 -22
-18 -22 -12 0 -16 17 -18 78 l-3 77 45 0 c35 0 48 -5 56 -19z m90 7 c0 -9 3
-9 12 0 7 7 24 12 38 12 33 0 50 -17 50 -49 0 -15 4 -21 8 -15 4 6 14 14 22
17 12 4 11 6 -2 6 -39 2 -8 41 32 41 37 0 50 -18 50 -66 0 -39 -2 -42 -32 -47
-20 -3 -42 1 -57 10 -15 10 -26 11 -30 5 -3 -6 -18 -13 -33 -17 -35 -9 -72 26
-65 61 3 15 0 24 -8 24 -15 0 -25 -22 -25 -56 0 -15 -6 -24 -15 -24 -11 0 -15
13 -15 53 l0 54 35 1 c21 1 35 -3 35 -10z m310 -3 c18 -22 -3 -44 -24 -26 -19
16 -36 6 -36 -19 0 -22 22 -39 28 -22 6 18 42 15 42 -3 0 -22 -49 -39 -77 -26
-18 8 -23 19 -23 49 0 21 5 43 12 50 17 17 63 15 78 -3z m-510 -185 c0 -5 -4
-10 -10 -10 -5 0 -10 5 -10 10 0 6 5 10 10 10 6 0 10 -4 10 -10z m-1015 -450
c3 -5 1 -10 -4 -10 -6 0 -11 5 -11 10 0 6 2 10 4 10 3 0 8 -4 11 -10z m25
-455 c0 -16 -6 -25 -15 -25 -9 0 -15 9 -15 25 0 16 6 25 15 25 9 0 15 -9 15
-25z m-16 -51 c9 -25 7 -34 -8 -34 -19 0 -28 14 -20 34 8 20 20 20 28 0z m16
-84 c0 -5 -4 -10 -10 -10 -5 0 -10 5 -10 10 0 6 5 10 10 10 6 0 10 -4 10 -10z
m1042 -82 c-2 -10 -8 -15 -13 -12 -5 3 -7 9 -4 14 3 5 -1 21 -10 34 -9 14 -14
30 -10 36 9 15 42 -50 37 -72z m14 45 c-7 -7 -26 7 -26 19 0 6 6 6 15 -2 9 -7
13 -15 11 -17z m-1036 7 c0 -5 -2 -10 -4 -10 -3 0 -8 5 -11 10 -3 6 -1 10 4
10 6 0 11 -4 11 -10z m-40 -10 c0 -5 -4 -10 -10 -10 -5 0 -10 5 -10 10 0 6 5
10 10 10 6 0 10 -4 10 -10z m185 -117 c-3 -38 -7 -81 -8 -98 -1 -20 -8 -31
-20 -33 -16 -3 -18 0 -11 20 4 12 8 50 10 83 2 64 10 95 25 95 5 0 7 -30 4
-67z m905 6 c0 -5 -7 -6 -15 -3 -8 4 -15 13 -15 21 0 13 3 13 15 3 8 -7 15
-16 15 -21z m10 -52 c0 -5 -4 -5 -10 -2 -5 3 -10 14 -10 23 0 15 2 15 10 2 5
-8 10 -19 10 -23z m-896 -166 c3 -5 -1 -14 -9 -21 -13 -10 -15 -9 -15 9 0 21
14 28 24 12z m213 -23 c-3 -8 -6 -5 -6 6 -1 11 2 17 5 13 3 -3 4 -12 1 -19z
m-181 -35 c-11 -11 -17 4 -9 23 7 18 8 18 11 1 2 -10 1 -21 -2 -24z m64 28 c0
-6 -4 -13 -10 -16 -5 -3 -10 1 -10 9 0 9 5 16 10 16 6 0 10 -4 10 -9z m101
-56 c-3 -22 -9 -35 -12 -30 -6 10 9 80 16 74 1 -2 0 -22 -4 -44z m-181 20 c6
-8 8 -19 4 -26 -5 -8 -9 -7 -16 5 -5 9 -16 16 -23 16 -8 0 -15 5 -15 10 0 15
36 12 50 -5z m783 -48 c-9 -16 -24 9 -17 28 7 18 8 18 14 -1 4 -10 5 -23 3
-27z m-653 -12 c0 -8 -4 -15 -10 -15 -5 0 -7 7 -4 15 4 8 8 15 10 15 2 0 4 -7
4 -15z m700 -35 c0 -5 -4 -10 -10 -10 -5 0 -10 5 -10 10 0 6 5 10 10 10 6 0
10 -4 10 -10z m130 -526 c0 -8 -4 -12 -10 -9 -5 3 -10 10 -10 16 0 5 5 9 10 9
6 0 10 -7 10 -16z m-12 -93 c3 -8 -1 -12 -9 -9 -7 2 -15 10 -17 17 -3 8 1 12
9 9 7 -2 15 -10 17 -17z m1227 -50 c3 -5 1 -12 -5 -16 -5 -3 -10 1 -10 9 0 18
6 21 15 7z m-1235 -22 c0 -6 -4 -7 -10 -4 -5 3 -10 11 -10 16 0 6 5 7 10 4 6
-3 10 -11 10 -16z m180 -80 c0 -6 -4 -7 -10 -4 -5 3 -10 11 -10 16 0 6 5 7 10
4 6 -3 10 -11 10 -16z m-13397 -107 c30 -20 77 -79 77 -97 0 -6 -47 -34 -105
-63 -58 -28 -105 -56 -105 -61 0 -18 50 -69 80 -81 53 -22 123 14 135 70 8 38
31 39 38 3 12 -56 -71 -123 -151 -123 -45 0 -106 25 -134 57 -50 55 -72 166
-44 221 42 80 144 116 209 74z m-336 -27 c32 -22 56 -79 48 -116 -8 -37 -48
-85 -89 -106 l-31 -16 124 -59 c68 -32 134 -58 147 -58 42 0 33 -16 -31 -50
-62 -34 -91 -36 -65 -5 11 13 -6 24 -129 82 -77 37 -141 70 -141 73 0 3 15 11
34 18 18 7 52 26 75 42 36 27 41 35 41 71 0 31 -6 47 -29 70 -39 38 -69 37
-159 -6 l-72 -34 65 -132 c37 -72 79 -160 95 -195 22 -47 35 -64 49 -64 53 0
10 -41 -67 -65 -20 -6 -22 -4 -17 17 5 18 -18 73 -84 207 -49 100 -91 187 -93
192 -2 6 -11 11 -21 13 -10 1 -18 6 -18 11 -2 12 213 122 248 128 43 7 93 0
120 -18z m13760 -25 c1 -25 -2 -38 -9 -34 -5 3 -8 15 -5 25 3 10 1 22 -4 25
-5 3 -7 10 -4 15 12 19 20 8 22 -31z m43 -81 c0 -5 -4 -9 -10 -9 -5 0 -10 7
-10 16 0 8 5 12 10 9 6 -3 10 -10 10 -16z m-1 -28 c7 -5 10 -14 6 -20 -5 -9
-10 -9 -21 0 -26 22 -14 38 15 20z m-79 -62 c0 -10 -4 -19 -10 -19 -5 0 -10
12 -10 26 0 14 4 23 10 19 6 -3 10 -15 10 -26z m-6 -103 c-2 -43 -15 -61 -39
-52 -14 5 -15 9 -4 22 10 12 10 17 1 23 -9 5 -7 13 6 29 24 30 37 22 36 -22z
m1126 -138 c0 -10 -4 -18 -10 -18 -5 0 -10 15 -10 33 0 24 3 28 10 17 5 -8 10
-23 10 -32z m79 -13 l0 -30 -14 34 c-8 18 -12 38 -9 43 10 16 24 -13 23 -47z
m-1062 13 c-3 -8 -6 -5 -6 6 -1 11 2 17 5 13 3 -3 4 -12 1 -19z m803 -59 c0
-11 -7 -27 -15 -36 -14 -14 -16 -12 -13 21 2 38 28 52 28 15z m-810 -32 c0
-20 -25 1 -28 24 -2 23 -2 23 13 5 8 -11 15 -24 15 -29z m8 -68 c-18 -11 -32
6 -24 28 7 17 8 17 22 -1 11 -16 11 -21 2 -27z m1091 -25 c3 -16 1 -17 -13 -5
-19 16 -21 34 -3 29 6 -3 14 -13 16 -24z m-14843 -9 c4 -8 3 -22 0 -31 -5 -14
-8 -14 -28 0 -58 41 -98 10 -98 -74 l0 -59 43 -3 c29 -2 42 -8 42 -18 0 -10
-13 -16 -42 -18 l-43 -3 0 -139 c0 -113 3 -139 15 -144 34 -13 12 -26 -45 -26
-45 0 -60 4 -60 14 0 8 7 16 15 20 12 4 15 30 15 141 l0 135 -30 0 c-19 0 -30
5 -30 14 0 8 14 17 30 21 29 6 30 9 30 59 0 57 23 100 64 116 37 15 116 12
122 -5z m14593 -54 c1 -20 -1 -22 -14 -11 -13 11 -16 52 -5 80 3 9 18 -44 19
-69z m-49 39 c-6 -11 -13 -20 -15 -20 -3 0 -5 9 -5 20 0 11 7 20 15 20 13 0
14 -4 5 -20z m-210 -21 c0 -5 -9 -9 -20 -9 -17 0 -19 2 -8 14 13 14 28 12 28
-5z m468 -55 c-3 -14 -5 -12 -10 9 -3 19 -2 25 4 19 6 -6 8 -18 6 -28z m-221
11 c12 -12 12 -19 3 -30 -15 -18 -34 -9 -25 13 3 8 0 19 -7 24 -11 6 -10 8 0
8 7 0 20 -7 29 -15z m-224 -2 c-7 -2 -15 -4 -18 -4 -3 1 -16 -11 -29 -26 -21
-24 -26 -26 -40 -14 -14 12 -16 12 -11 -2 8 -20 -11 -31 -32 -18 -10 6 -12 11
-5 11 6 0 12 9 12 21 0 11 4 18 9 15 5 -3 26 1 47 8 35 13 97 22 67 9z m32
-62 c-8 -14 -35 -14 -35 0 0 6 7 9 15 5 8 -3 15 0 15 6 0 6 3 9 6 5 3 -3 3
-10 -1 -16z m185 -1 c0 -5 -2 -10 -4 -10 -3 0 -8 5 -11 10 -3 6 -1 10 4 10 6
0 11 -4 11 -10z m249 -37 c0 -21 2 -50 6 -65 5 -20 4 -28 -6 -28 -7 0 -10 3
-6 6 3 3 1 17 -4 31 -8 23 -3 93 7 93 3 0 4 -17 3 -37z m-499 17 c0 -5 -7 -10
-16 -10 -8 0 -12 5 -9 10 3 6 10 10 16 10 5 0 9 -4 9 -10z m210 -15 c0 -17 -6
-25 -17 -25 -13 0 -14 3 -6 11 6 6 9 18 6 25 -3 8 0 14 6 14 6 0 11 -11 11
-25z m-275 -74 c-11 -12 -18 -12 -27 -3 -9 9 -7 16 7 32 10 11 15 20 11 20 -4
0 -4 5 0 12 5 8 11 2 16 -17 5 -21 3 -34 -7 -44z m-25 49 c0 -5 -2 -10 -4 -10
-3 0 -8 5 -11 10 -3 6 -1 10 4 10 6 0 11 -4 11 -10z m80 1 c0 -6 -4 -13 -10
-16 -5 -3 -10 1 -10 9 0 9 5 16 10 16 6 0 10 -4 10 -9z m-700 -64 c0 -16 -18
3 -23 25 -6 22 -5 22 8 4 8 -11 15 -24 15 -29z m585 13 c3 -5 1 -10 -4 -10 -6
0 -11 5 -11 10 0 6 2 10 4 10 3 0 8 -4 11 -10z m383 -24 c6 -31 -16 -43 -27
-15 -5 13 -7 28 -4 32 8 13 28 2 31 -17z m52 -44 c0 -13 6 -30 14 -37 15 -15
31 -83 22 -92 -3 -3 -12 -1 -19 5 -11 9 -16 6 -26 -15 l-12 -26 -15 27 c-7 16
-12 32 -9 36 3 5 1 11 -5 15 -15 9 -12 35 4 35 17 0 31 18 21 28 -3 3 -10 0
-15 -8 -8 -13 -11 -13 -22 -1 -10 11 -10 14 0 18 6 3 12 11 12 19 0 20 18 17
24 -3 3 -12 5 -9 4 7 0 40 2 46 12 30 5 -8 10 -25 10 -38z m-286 22 c8 -21 8
-24 -3 -24 -5 0 -11 9 -14 20 -6 24 8 27 17 4z m-709 -34 c3 -5 1 -10 -4 -10
-6 0 -11 5 -11 10 0 6 2 10 4 10 3 0 8 -4 11 -10z m705 -21 c0 -5 -10 -9 -21
-9 -18 0 -19 2 -9 15 12 15 30 12 30 -6z m-90 -3 c0 -11 -19 -15 -25 -6 -3 5
1 10 9 10 9 0 16 -2 16 -4z m280 -51 c-7 -8 -16 -12 -21 -9 -13 8 -1 24 18 24
13 0 13 -3 3 -15z m16 -83 c-4 -3 -11 -1 -18 6 -8 8 -8 15 3 28 13 16 14 16
17 -5 2 -13 1 -25 -2 -29z m134 -7 c0 -8 -2 -15 -4 -15 -2 0 -6 7 -10 15 -3 8
-1 15 4 15 6 0 10 -7 10 -15z m-40 -21 c0 -8 -4 -12 -10 -9 -5 3 -10 13 -10
21 0 8 5 12 10 9 6 -3 10 -13 10 -21z m-32 -13 c3 -8 -1 -12 -9 -9 -7 2 -15
10 -17 17 -3 8 1 12 9 9 7 -2 15 -10 17 -17z m-192 -16 c15 -9 24 -25 24 -41
0 -13 7 -27 15 -30 9 -4 13 -13 10 -23 -3 -12 1 -17 15 -17 11 0 20 5 20 11 0
13 126 19 134 7 3 -6 29 -13 57 -17 35 -5 57 -14 71 -30 11 -13 25 -22 32 -19
6 2 21 -11 33 -28 25 -36 21 -54 -5 -23 -21 25 -61 42 -89 37 -17 -2 -26 -17
-42 -72 -12 -37 -21 -78 -21 -89 0 -12 -3 -21 -7 -21 -17 0 -21 -148 -10 -350
3 -52 8 -158 12 -235 5 -103 11 -145 23 -157 8 -10 14 -30 13 -45 -5 -100 -10
-143 -20 -182 -11 -41 -10 -45 14 -67 30 -27 33 -44 6 -37 -11 3 -21 -2 -24
-11 -4 -9 -11 -16 -17 -16 -8 0 -8 6 0 20 8 16 7 26 -5 42 -17 26 -19 61 -5
89 6 11 8 35 4 55 -6 32 -8 34 -17 18 -20 -35 -62 -71 -91 -76 l-28 -6 26 25
c14 13 26 31 26 39 0 12 6 15 25 10 26 -7 34 5 13 21 -26 19 -76 15 -95 -7
-21 -25 -122 -94 -128 -88 -3 2 -1 18 4 35 17 59 -8 57 -76 -5 -38 -34 -53
-55 -53 -74 0 -24 -30 -45 -44 -30 -14 14 -4 63 19 90 14 17 35 52 46 78 24
54 21 105 -12 213 -10 35 -19 81 -19 103 0 23 -4 37 -10 33 -5 -3 -10 -2 -10
3 0 5 -28 45 -62 88 -80 101 -165 229 -215 321 l-39 71 12 109 c6 59 12 110
13 112 0 2 8 -2 16 -9 15 -13 39 -5 30 11 -4 5 -15 9 -26 9 -14 0 -19 7 -19
25 0 28 19 35 21 8 1 -16 2 -16 6 -2 5 19 43 33 56 20 16 -16 45 1 50 29 5 24
15 31 69 48 35 11 70 21 78 21 8 0 33 4 54 8 73 15 118 14 142 -2z m440 -60
c31 -13 51 -41 21 -29 -7 2 -29 -8 -47 -25 -33 -28 -73 -33 -50 -6 6 7 8 19 4
28 -3 8 -1 18 5 22 6 3 11 18 11 33 1 23 2 25 11 9 5 -9 26 -24 45 -32z
m-1088 -185 c-7 -10 -14 -18 -15 -16 -6 6 9 36 18 36 5 0 4 -9 -3 -20z
m-14120 -428 c18 -54 32 -101 32 -105 0 -18 -32 -4 -40 18 -8 21 -16 25 -49
25 -33 0 -40 -4 -45 -25 -4 -16 -13 -25 -25 -25 -18 0 -17 7 16 105 30 91 38
105 57 105 19 0 26 -13 54 -98z m692 -7 c0 -102 -1 -105 -22 -105 -13 0 -33
-3 -45 -6 -34 -9 -63 27 -63 81 0 58 28 90 71 81 27 -5 29 -3 29 24 0 20 5 30
15 30 12 0 15 -18 15 -105z m-451 39 c15 -11 25 -13 30 -6 3 6 18 13 33 17 44
11 68 -22 68 -95 0 -46 -3 -60 -15 -60 -10 0 -15 15 -17 56 -6 104 -68 96 -68
-8 0 -34 -4 -48 -14 -48 -9 0 -15 17 -18 55 -5 64 -20 85 -46 69 -12 -8 -18
-27 -20 -68 -3 -48 -6 -56 -22 -56 -18 0 -20 7 -20 76 0 70 2 76 19 71 10 -2
25 -1 32 4 20 13 32 11 58 -7z m275 -5 c23 -18 27 -27 24 -67 -7 -108 -138
-108 -138 1 0 47 6 58 35 75 29 17 49 14 79 -9z m299 12 c19 -8 47 -53 47 -77
0 -2 -25 -4 -55 -4 -59 0 -60 -1 -45 -31 13 -23 43 -25 60 -4 10 12 16 13 24
5 14 -14 -27 -50 -56 -50 -32 0 -68 45 -68 85 0 25 8 44 25 60 27 28 33 29 68
16z m14677 -145 c0 -3 -4 -8 -10 -11 -5 -3 -10 -1 -10 4 0 6 5 11 10 11 6 0
10 -2 10 -4z m-14790 -276 c0 -27 3 -30 24 -24 36 9 76 -34 76 -81 0 -47 -40
-90 -73 -79 -12 4 -32 7 -44 6 -23 -2 -23 1 -23 103 0 98 1 105 20 105 16 0
20 -7 20 -30z m164 21 c3 -5 0 -13 -7 -19 -15 -13 -42 1 -33 17 9 13 33 15 40
2z m239 2 c11 -10 -13 -32 -29 -26 -20 8 -17 33 4 33 10 0 22 -3 25 -7z m-915
-70 c25 -25 25 -28 8 -31 -10 -2 -23 3 -28 12 -14 25 -47 20 -54 -8 -11 -45
-1 -81 24 -84 13 -2 25 3 28 12 3 9 15 16 25 16 17 0 18 -3 9 -20 -26 -49
-101 -44 -121 7 -16 40 0 94 31 110 36 18 48 16 78 -14z m147 2 c68 -67 -14
-183 -88 -125 -22 17 -27 30 -27 65 0 35 5 48 26 64 35 27 59 26 89 -4z m161
11 c17 -12 22 -12 39 0 27 20 42 18 70 -11 21 -20 25 -34 25 -80 0 -42 -3 -55
-15 -55 -10 0 -15 11 -16 38 -2 64 -12 87 -39 87 -23 0 -26 -5 -34 -62 -12
-82 -34 -85 -38 -7 -6 104 -68 96 -68 -8 0 -36 -4 -48 -15 -48 -12 0 -15 15
-15 76 0 70 2 76 19 71 10 -2 25 -1 32 4 20 12 32 11 55 -5z m514 -6 c26 -26
30 -140 5 -140 -11 0 -15 12 -15 46 0 51 -14 84 -35 84 -21 0 -35 -33 -35 -84
0 -34 -4 -46 -15 -46 -12 0 -15 15 -15 76 0 57 3 75 13 71 6 -2 21 -1 32 4 32
12 44 10 65 -11z m236 5 c25 -17 35 -59 27 -109 -9 -58 -32 -45 -35 20 -6 104
-68 96 -68 -8 0 -36 -4 -48 -15 -48 -12 0 -15 15 -15 74 l0 75 33 4 c17 2 37
5 42 5 6 1 20 -5 31 -13z m173 4 l24 1 -7 -92 c-4 -58 -12 -98 -21 -107 -23
-23 -75 -18 -98 10 -18 22 -18 24 -2 27 9 2 22 -4 29 -13 15 -21 50 -16 54 8
3 14 -2 16 -26 11 -44 -9 -72 23 -72 81 0 57 28 90 68 80 15 -3 38 -6 51 -6z
m239 -16 c6 -9 12 -20 12 -25 0 -14 -27 -9 -40 7 -26 32 -60 5 -60 -48 0 -46
29 -56 72 -25 22 16 32 5 19 -20 -13 -25 -52 -35 -84 -23 -50 19 -56 113 -9
149 21 17 72 8 90 -15z m143 8 c19 -15 24 -29 24 -65 0 -52 -16 -73 -62 -82
-26 -5 -37 -1 -57 19 -72 72 17 191 95 128z m164 5 c14 -10 20 -30 23 -80 4
-62 3 -66 -17 -66 -19 0 -21 6 -21 54 0 61 -19 88 -45 66 -10 -8 -15 -31 -15
-66 0 -47 -2 -54 -20 -54 -18 0 -20 7 -20 76 0 70 2 76 19 71 10 -2 25 -1 32
4 20 13 43 11 64 -5z m-1105 -71 c0 -60 -3 -75 -15 -75 -12 0 -15 15 -15 75 0
60 3 75 15 75 12 0 15 -15 15 -75z m240 0 c0 -60 -3 -75 -15 -75 -12 0 -15 15
-15 75 0 60 3 75 15 75 12 0 15 -15 15 -75z m-1130 10 c0 -12 -13 -15 -55 -15
-51 0 -65 7 -48 23 3 4 28 7 55 7 36 0 48 -4 48 -15z m14377 -677 c-3 -7 -5
-2 -5 12 0 14 2 19 5 13 2 -7 2 -19 0 -25z m33 12 c0 -5 -4 -10 -10 -10 -5 0
-10 5 -10 10 0 6 5 10 10 10 6 0 10 -4 10 -10z m75 -31 c4 -6 5 -12 2 -15 -7
-7 -37 7 -37 17 0 13 27 11 35 -2z m-573 -111 c-7 -7 -12 -8 -12 -2 0 14 12
26 19 19 2 -3 -1 -11 -7 -17z m-14148 -3 c-4 -8 -10 -15 -14 -15 -4 0 -10 7
-14 15 -4 10 1 15 14 15 13 0 18 -5 14 -15z m13286 -122 c-1 -23 -25 -55 -35
-45 -4 4 -5 -9 -1 -29 6 -33 4 -37 -18 -43 -65 -16 -75 33 -19 94 39 42 73 53
73 23z m247 -1607 c5 -8 31 -24 58 -36 46 -21 141 -107 130 -118 -3 -3 0 -11
6 -18 6 -8 9 -20 6 -28 -3 -8 -2 -16 3 -18 11 -4 17 -42 7 -48 -10 -6 -202
170 -238 217 -13 18 -30 33 -36 33 -13 0 -17 12 -8 22 11 11 65 6 72 -6z m244
-289 c-10 -9 -11 -8 -5 6 3 10 9 15 12 12 3 -3 0 -11 -7 -18z m-228 -251 c22
-17 12 -46 -15 -46 -15 0 -19 -5 -16 -18 3 -12 -2 -24 -13 -31 -18 -10 -19 -7
-19 49 0 56 2 60 23 60 12 0 30 -7 40 -14z m-474 -50 c12 -14 9 -18 -21 -29
-14 -5 -18 -1 -18 18 0 28 21 33 39 11z m-229 -17 c0 -18 -2 -19 -15 -9 -8 7
-15 16 -15 21 0 5 7 9 15 9 9 0 15 -9 15 -21z m510 7 c0 -7 -11 -16 -25 -18
-28 -6 -30 -3 -12 17 16 18 37 19 37 1z"/>
<path d="M14766 8194 c-10 -27 -7 -61 8 -73 15 -12 46 -5 46 11 0 6 9 8 20 5
17 -4 20 0 20 24 0 22 -5 29 -19 29 -11 0 -23 5 -26 10 -10 16 -42 12 -49 -6z"/>
<path d="M1362 8188 c-24 -24 -11 -78 19 -78 26 0 24 16 -2 23 -27 7 -20 31
10 35 18 3 20 6 10 18 -14 17 -21 18 -37 2z"/>
<path d="M15582 8145 c2 -14 8 -26 13 -26 6 0 11 12 13 26 2 18 -1 25 -13 25
-12 0 -15 -7 -13 -25z"/>
<path d="M15764 8155 c-7 -18 2 -45 15 -45 12 0 24 37 16 50 -9 15 -25 12 -31
-5z"/>
<path d="M15875 8120 c4 -6 11 -8 16 -5 14 9 11 15 -7 15 -8 0 -12 -5 -9 -10z"/>
<path d="M2326 5509 c-22 -18 -26 -28 -26 -74 0 -30 4 -56 9 -60 12 -7 161 66
161 78 0 5 -15 24 -34 43 -39 39 -72 43 -110 13z"/>
<path d="M16850 4485 c-17 -21 -5 -31 15 -12 8 9 15 18 15 21 0 11 -18 6 -30
-9z"/>
<path d="M16825 3825 c-4 -16 -19 -44 -32 -61 -12 -17 -23 -36 -23 -41 0 -6
-16 -25 -35 -42 -19 -17 -35 -33 -35 -37 0 -4 -15 -22 -33 -39 -55 -54 -69
-94 -58 -165 6 -34 8 -67 4 -75 -3 -9 1 -15 11 -15 9 0 17 -9 17 -20 1 -19 4
-32 9 -47 1 -5 3 -19 4 -33 1 -24 4 -25 49 -22 28 2 54 -1 63 -8 8 -7 17 -10
21 -7 3 4 12 2 19 -4 7 -6 17 -8 22 -5 29 18 44 234 28 411 -21 243 -21 242
-31 210z m-85 -295 c0 -42 -14 -54 -23 -20 -6 24 2 60 14 60 5 0 9 -18 9 -40z"/>
<path d="M1822 3691 c-17 -47 -15 -51 13 -51 28 0 28 1 11 50 l-13 34 -11 -33z"/>
<path d="M2492 3678 c-17 -17 -15 -73 3 -88 34 -28 68 27 46 76 -12 26 -30 31
-49 12z"/>
<path d="M2328 3665 c-17 -38 0 -80 32 -80 18 0 27 8 34 27 13 36 -6 78 -34
78 -12 0 -25 -10 -32 -25z"/>
<path d="M2650 3670 c-10 -18 -8 -20 25 -20 37 0 43 8 23 28 -18 18 -36 15
-48 -8z"/>
<path d="M2596 3224 c-9 -22 -7 -67 3 -82 25 -41 71 22 52 71 -12 30 -45 37
-55 11z"/>
<path d="M2150 3221 c-14 -28 -12 -67 5 -81 37 -31 80 24 57 75 -14 30 -47 33
-62 6z"/>
<path d="M3229 3216 c-14 -29 -4 -75 16 -83 36 -13 58 44 35 88 -15 26 -38 24
-51 -5z"/>
<path d="M3622 3228 c-17 -17 -15 -73 4 -89 23 -19 48 1 52 40 5 50 -27 78
-56 49z"/>
<path d="M14003 8719 c-7 -7 -13 -21 -13 -31 0 -27 -22 -68 -37 -68 -7 0 -13
9 -13 20 0 11 -3 20 -6 20 -12 0 -35 -30 -29 -40 3 -5 1 -18 -4 -29 -8 -14 -8
-20 1 -23 9 -3 8 -12 -5 -31 -10 -15 -13 -27 -7 -27 14 0 12 -20 -4 -52 -13
-24 -12 -27 2 -31 15 -4 15 -5 0 -6 -14 -1 -16 -6 -10 -23 9 -25 5 -58 -7 -58
-5 0 -6 -16 -4 -36 2 -23 0 -33 -7 -29 -5 3 -11 0 -12 -7 0 -7 -2 -17 -2 -23
-1 -5 -5 -15 -9 -21 -7 -12 12 -24 37 -24 8 0 17 28 25 78 7 42 13 86 15 97 2
11 7 54 11 95 5 41 9 82 10 90 1 8 2 22 3 32 1 9 9 15 20 14 13 -2 16 -10 14
-32 -8 -61 -7 -77 6 -81 9 -4 12 15 12 74 0 55 5 85 16 101 19 27 16 70 -3 51z"/>
<path d="M14072 8581 c0 -22 -3 -44 -6 -50 -10 -16 3 -51 19 -51 11 0 13 13
11 58 -5 83 -5 82 -15 82 -6 0 -10 -18 -9 -39z"/>
<path d="M6410 8525 c1 -11 6 -30 14 -43 15 -28 30 -15 41 36 6 31 6 32 -24
30 -24 -2 -31 -7 -31 -23z"/>
<path d="M2374 8458 c3 -13 6 -56 6 -96 l0 -73 40 32 c73 59 190 50 259 -21
57 -59 74 -131 47 -208 l-14 -40 89 -7 c121 -9 148 -37 129 -136 -6 -29 -10
-53 -10 -55 0 -2 -22 5 -49 15 -65 26 -185 31 -207 9 -13 -13 -23 -14 -53 -6
-20 6 -38 14 -41 18 -8 11 -67 40 -83 40 -8 0 -17 7 -21 15 -3 8 -13 15 -21
15 -20 0 -98 45 -116 66 -17 21 -113 84 -128 84 -6 0 -29 11 -51 25 -42 26
-97 49 -142 59 -23 5 -29 2 -34 -18 -8 -32 11 -119 37 -173 28 -58 108 -128
172 -150 48 -16 94 -18 546 -18 l494 0 14 50 c21 77 27 135 14 135 -7 0 -11
21 -11 55 l0 55 -50 0 c-47 0 -50 2 -50 25 0 23 3 25 50 25 l50 0 0 98 c0 71
-4 104 -15 118 -8 10 -15 34 -15 52 0 29 -3 32 -31 32 l-30 0 4 -95 c3 -52 1
-95 -4 -95 -5 0 -9 -22 -9 -50 0 -58 -10 -62 -61 -25 -76 55 -89 59 -142 45
-51 -13 -75 -5 -64 23 7 19 119 40 167 32 21 -4 40 -3 43 2 2 4 0 43 -6 86
l-9 77 -350 0 -350 0 6 -22z"/>
<path d="M16950 8474 c-8 -3 -34 -12 -57 -20 l-43 -16 0 -55 c0 -37 6 -66 19
-87 21 -36 35 -134 21 -156 -5 -8 -11 -12 -14 -9 -3 3 -19 50 -35 105 -45 152
-48 159 -67 143 -11 -9 -13 -22 -9 -51 6 -34 4 -38 -13 -38 -11 0 -22 5 -24
12 -2 6 -12 -8 -22 -33 -29 -69 -26 -171 7 -242 14 -31 29 -57 32 -57 8 0 -1
209 -10 233 -4 9 -3 17 3 17 6 0 13 -8 15 -17 3 -11 5 -7 6 10 1 18 -3 26 -10
21 -7 -4 -10 1 -7 11 1 10 9 20 16 23 9 3 12 -15 12 -66 0 -47 -4 -72 -12 -75
-10 -4 -9 -8 2 -16 9 -6 15 -31 16 -73 1 -35 2 -71 3 -80 1 -10 10 -22 20 -28
17 -9 27 -3 63 34 l42 45 17 -26 17 -25 17 26 c19 29 40 34 48 12 10 -25 64 9
72 44 9 40 20 45 45 20 22 -22 36 -25 45 -10 3 6 17 7 31 4 21 -5 24 -3 24 20
0 16 6 26 14 26 8 0 20 17 27 38 13 41 39 83 39 64 0 -9 5 -10 19 -2 12 6 30
41 46 90 15 44 31 77 36 74 6 -3 9 -37 8 -76 -1 -40 2 -73 8 -76 6 -4 13 -16
16 -27 4 -16 5 -15 6 6 0 15 8 29 16 33 9 3 15 18 15 38 0 18 7 71 15 118 8
47 15 88 15 93 0 8 -525 9 -550 1z"/>
<path d="M17524 8456 c3 -14 2 -46 -3 -73 -5 -26 -12 -75 -16 -109 l-6 -60 36
4 c34 4 35 5 35 50 0 30 3 43 10 36 12 -12 17 -190 8 -314 -4 -62 -3 -81 2
-55 5 22 9 58 10 80 0 40 14 75 24 64 10 -9 10 -71 2 -133 -6 -47 -5 -57 6
-54 8 3 15 28 19 64 3 32 10 80 14 105 5 29 3 53 -4 65 -9 17 -10 16 -11 -8 0
-21 -5 -28 -20 -28 -18 0 -20 7 -20 65 0 73 14 85 48 38 l19 -26 7 84 c4 46 9
117 13 157 l6 72 -93 0 -92 0 6 -24z"/>
<path d="M17725 8470 c-3 -5 -6 -93 -7 -195 0 -108 -4 -185 -10 -185 -9 0 -4
-247 5 -256 8 -8 16 59 22 181 10 196 17 280 26 295 6 11 9 9 9 -10 1 -101 20
-104 36 -6 13 79 24 96 24 38 0 -38 2 -42 25 -42 18 0 25 5 25 20 0 38 28 90
44 84 9 -3 16 -12 16 -20 0 -10 7 -13 25 -8 20 5 25 2 31 -20 6 -26 1 -114
-12 -189 -3 -20 -3 -58 1 -84 10 -70 29 -29 21 45 -6 54 -6 56 8 32 9 -14 16
-34 16 -45 1 -19 1 -19 11 -1 8 12 8 25 1 40 -5 12 -6 47 -1 86 4 36 10 107
12 158 l4 92 -163 0 c-97 0 -165 -4 -169 -10z"/>
<path d="M18070 8468 c0 -29 21 -38 44 -17 l21 20 3 -23 c5 -37 62 -212 73
-222 5 -6 9 -39 9 -75 0 -37 5 -84 10 -106 5 -22 10 -57 12 -78 1 -20 6 -37
10 -37 4 0 8 -15 8 -32 0 -48 11 -60 51 -53 78 13 87 21 94 91 5 43 3 74 -5
94 -10 23 -10 33 0 44 7 10 13 73 16 184 l4 170 -52 22 c-67 29 -298 43 -298
18z"/>
<path d="M14075 8411 c-3 -5 -1 -12 5 -16 5 -3 10 1 10 9 0 18 -6 21 -15 7z"/>
<path d="M13935 8400 c-3 -5 -1 -10 4 -10 6 0 11 5 11 10 0 6 -2 10 -4 10 -3
0 -8 -4 -11 -10z"/>
<path d="M6090 8345 c7 -9 15 -13 17 -11 7 7 -7 26 -19 26 -6 0 -6 -6 2 -15z"/>
<path d="M15142 8328 c-17 -17 -15 -65 3 -65 8 0 15 5 15 10 0 5 7 4 15 -3 12
-10 15 -10 15 3 0 9 -4 19 -10 22 -5 3 -10 15 -10 26 0 22 -11 24 -28 7z"/>
<path d="M2454 8311 c-30 -19 -64 -57 -64 -73 0 -5 15 -8 33 -8 30 0 36 5 52
43 10 23 20 45 23 50 7 13 -12 8 -44 -12z"/>
<path d="M2511 8287 c-12 -24 -21 -46 -21 -50 0 -4 25 -7 56 -7 l55 0 -27 50
c-15 28 -31 50 -35 50 -4 0 -17 -19 -28 -43z"/>
<path d="M2597 8281 c24 -48 28 -51 65 -51 l39 0 -15 29 c-17 31 -51 57 -89
66 l-25 7 25 -51z"/>
<path d="M15400 8286 c0 -9 5 -16 10 -16 6 0 10 4 10 9 0 6 -4 13 -10 16 -5 3
-10 -1 -10 -9z"/>
<path d="M3290 8236 l0 -56 120 0 120 0 0 50 0 50 -97 0 c-54 0 -108 3 -120 6
-22 6 -23 4 -23 -50z"/>
<path d="M15274 8260 c3 -14 9 -45 13 -69 4 -27 9 -38 14 -30 8 15 -11 103
-25 116 -5 4 -6 -3 -2 -17z"/>
<path d="M15150 8237 c0 -14 19 -37 31 -37 4 0 2 11 -4 25 -13 27 -27 33 -27
12z"/>
<path d="M15415 8240 c3 -5 10 -10 16 -10 5 0 9 5 9 10 0 6 -7 10 -16 10 -8 0
-12 -4 -9 -10z"/>
<path d="M2370 8197 c0 -11 58 -47 75 -47 3 0 5 14 5 30 0 28 -2 30 -40 30
-26 0 -40 -4 -40 -13z"/>
<path d="M2480 8175 c0 -28 5 -37 30 -50 16 -8 42 -15 58 -15 23 0 31 5 36 25
4 14 4 36 0 50 -6 23 -11 25 -65 25 l-59 0 0 -35z"/>
<path d="M2625 8160 l0 -50 42 0 c37 0 43 3 49 25 3 14 3 36 0 50 -6 22 -12
25 -49 25 l-42 0 0 -50z"/>
<path d="M17527 8183 c-11 -10 -8 -61 4 -69 6 -3 16 -1 22 5 7 7 6 12 -6 17
-21 8 -22 24 -2 24 8 0 15 7 15 15 0 15 -21 21 -33 8z"/>
<path d="M13456 8165 c-3 -8 -1 -15 4 -15 6 0 10 7 10 15 0 8 -2 15 -4 15 -2
0 -6 -7 -10 -15z"/>
<path d="M13872 8145 c0 -16 2 -22 5 -12 2 9 2 23 0 30 -3 6 -5 -1 -5 -18z"/>
<path d="M15467 8150 c-6 -23 10 -37 25 -22 12 12 4 42 -11 42 -5 0 -11 -9
-14 -20z"/>
<path d="M14010 8120 c0 -16 -4 -30 -10 -30 -15 0 -12 -21 5 -40 13 -14 14
-29 5 -89 -5 -39 -14 -79 -19 -89 -5 -9 -15 -29 -22 -45 -13 -29 -24 -26 -32
8 -4 18 -5 18 -6 -2 0 -12 -5 -25 -11 -28 -5 -3 -10 -15 -10 -26 0 -11 -7 -22
-15 -25 -8 -4 -15 -15 -15 -25 0 -10 7 -19 15 -19 8 0 15 -6 15 -14 0 -7 7
-19 15 -26 20 -17 19 -31 -2 -24 -13 4 -15 3 -5 -4 7 -5 15 -25 17 -45 1 -20
6 -63 10 -97 4 -33 3 -66 -2 -73 -24 -31 -41 -171 -22 -182 5 -4 9 -19 9 -34
0 -15 6 -36 14 -47 15 -19 15 -19 29 1 9 11 18 38 21 60 12 81 30 140 45 155
9 8 17 33 19 55 1 22 5 59 8 83 3 27 1 42 -6 42 -6 0 -9 4 -5 10 3 5 11 7 18
4 7 -2 21 12 32 32 41 77 17 470 -30 488 -9 3 -18 -1 -21 -9 -5 -11 -9 -12
-19 -2 -11 10 -11 16 0 34 12 18 12 22 -1 27 -23 9 -24 8 -24 -24z m30 -432
c0 -7 -4 -19 -9 -27 -5 -7 -5 -28 -1 -47 7 -28 5 -34 -9 -34 -14 0 -14 -2 -1
-10 11 -7 12 -15 4 -37 -7 -20 -7 -33 2 -48 14 -22 6 -86 -12 -92 -19 -6 -39
59 -39 129 0 38 3 68 8 68 4 0 7 9 7 19 0 11 4 22 9 25 4 3 11 19 14 36 6 29
27 43 27 18z m-33 -337 c1 -11 -5 -25 -13 -32 -11 -9 -14 -7 -14 13 0 38 24
55 27 19z"/>
<path d="M14077 8143 c-11 -10 -8 -43 3 -43 6 0 10 11 10 25 0 26 -2 29 -13
18z"/>
<path d="M17851 8123 c0 -18 -5 -33 -11 -33 -5 0 -10 -18 -10 -40 0 -22 4 -40
9 -40 12 0 24 77 18 116 l-4 29 -2 -32z"/>
<path d="M3290 8080 l0 -50 120 0 120 0 0 50 0 50 -120 0 -120 0 0 -50z"/>
<path d="M13428 8099 c-10 -10 -18 -21 -18 -23 0 -3 -13 -33 -29 -68 -49 -106
-108 -272 -125 -349 -25 -120 -26 -158 -4 -227 25 -81 32 -76 12 8 -27 113 -3
209 117 470 77 168 92 210 76 209 -7 0 -20 -9 -29 -20z"/>
<path d="M17471 8017 c-6 -50 -14 -113 -17 -139 l-6 -48 35 0 34 0 12 88 c6
48 14 104 17 125 5 29 3 37 -8 37 -10 0 -19 -16 -25 -42 l-11 -43 -1 52 c-2
85 -17 69 -30 -30z"/>
<path d="M15230 8090 c0 -5 5 -10 11 -10 5 0 7 5 4 10 -3 6 -8 10 -11 10 -2 0
-4 -4 -4 -10z"/>
<path d="M15316 8091 c-4 -5 -2 -12 3 -16 6 -3 8 -12 5 -19 -3 -8 0 -17 5 -21
6 -3 9 -11 6 -16 -3 -5 1 -23 9 -41 8 -18 17 -45 20 -61 8 -36 46 -98 46 -75
0 9 -4 19 -9 23 -6 3 -13 26 -17 50 -3 25 -10 48 -15 51 -5 3 -9 15 -9 27 0
23 -22 92 -32 102 -3 4 -9 2 -12 -4z"/>
<path d="M2626 8081 c19 -19 61 -23 67 -7 5 13 -1 16 -35 16 -26 0 -38 -4 -32
-9z"/>
<path d="M13829 8073 c-1 -10 -2 -60 -3 -111 -1 -59 -6 -96 -13 -100 -7 -5 -9
-13 -3 -21 4 -8 4 -24 0 -37 -7 -17 -6 -22 4 -18 19 7 39 79 43 154 2 36 6 84
9 108 6 38 5 42 -15 42 -13 0 -21 -7 -22 -17z"/>
<path d="M14266 8021 c-8 -12 3 -41 15 -41 12 0 12 37 0 45 -5 3 -12 1 -15 -4z"/>
<path d="M15402 8008 c2 -12 8 -23 14 -25 7 -2 10 6 7 22 -6 30 -26 34 -21 3z"/>
<path d="M13991 8004 c0 -11 3 -14 6 -6 3 7 2 16 -1 19 -3 4 -6 -2 -5 -13z"/>
<path d="M13331 7954 c0 -11 3 -14 6 -6 3 7 2 16 -1 19 -3 4 -6 -2 -5 -13z"/>
<path d="M13317 7923 c-4 -3 -7 -11 -7 -17 0 -6 5 -5 12 2 6 6 9 14 7 17 -3 3
-9 2 -12 -2z"/>
<path d="M14300 7920 c0 -5 5 -10 10 -10 6 0 10 5 10 10 0 6 -4 10 -10 10 -5
0 -10 -4 -10 -10z"/>
<path d="M17620 7851 c0 -12 5 -21 10 -21 6 0 10 6 10 14 0 8 -4 18 -10 21 -5
3 -10 -3 -10 -14z"/>
<path d="M13277 7823 c-10 -19 -17 -64 -9 -59 6 3 12 19 14 36 5 30 3 37 -5
23z"/>
<path d="M18360 7815 c-33 -11 -35 -15 -38 -58 -2 -28 1 -47 7 -47 6 0 11 -15
11 -34 0 -42 19 -61 44 -43 14 10 16 27 14 103 l-3 91 -35 -12z"/>
<path d="M14267 7807 c-3 -9 -2 -19 4 -23 15 -9 18 -2 9 20 -6 17 -7 18 -13 3z"/>
<path d="M15430 7784 c0 -11 7 -29 15 -40 19 -25 19 -15 0 27 -10 25 -14 29
-15 13z"/>
<path d="M17451 7733 c-1 -38 -7 -108 -13 -158 -14 -118 -16 -319 -3 -323 13
-4 18 28 53 316 l28 232 -32 0 -31 0 -2 -67z"/>
<path d="M14500 7765 c0 -8 4 -15 10 -15 5 0 7 7 4 15 -4 8 -8 15 -10 15 -2 0
-4 -7 -4 -15z"/>
<path d="M15460 7710 c0 -5 5 -10 11 -10 5 0 7 5 4 10 -3 6 -8 10 -11 10 -2 0
-4 -4 -4 -10z"/>
<path d="M15360 7696 c0 -8 5 -18 10 -21 6 -3 10 3 10 14 0 12 -4 21 -10 21
-5 0 -10 -6 -10 -14z"/>
<path d="M12230 7663 c-53 -5 -64 -14 -65 -50 0 -20 -6 -29 -20 -31 -11 -2
-29 -7 -40 -12 -11 -5 -51 -18 -90 -30 -38 -12 -77 -27 -85 -34 -8 -7 -31 -19
-50 -26 -45 -17 -70 -44 -63 -71 5 -19 4 -20 -14 -8 -27 17 -53 5 -53 -25 0
-28 33 -41 54 -21 7 8 27 17 42 20 55 13 64 16 59 25 -11 17 15 20 34 4 26
-22 11 -54 -24 -54 -14 0 -25 -4 -25 -10 0 -5 -9 -10 -19 -10 -11 0 -23 -5
-26 -10 -4 -6 -14 -8 -24 -5 -20 6 -55 -29 -64 -64 -8 -32 18 -79 46 -86 12
-2 37 -3 55 -2 21 2 32 -1 32 -10 0 -7 -4 -13 -9 -13 -5 0 -11 -9 -14 -19 -4
-16 -11 -19 -43 -14 -66 8 -79 -10 -77 -109 0 -51 -4 -89 -11 -98 -21 -27 -19
-68 3 -82 26 -16 27 -44 2 -58 -24 -12 -121 -13 -140 -1 -9 6 -11 18 -7 35 8
33 -12 43 -62 30 -34 -9 -35 -10 -34 -59 0 -27 3 -57 6 -65 3 -8 9 -69 13
-135 l8 -120 245 2 c588 6 1406 36 1423 53 11 10 -11 347 -25 380 l-11 25 -9
-28 c-12 -34 -36 -32 -57 5 -14 24 -14 28 3 47 10 11 28 21 40 23 l21 3 -2
317 c0 174 -4 322 -8 328 -7 11 -198 12 -213 1 -4 -3 -13 -18 -19 -33 -7 -16
-21 -28 -30 -28 -20 0 -47 36 -38 50 4 6 1 10 -6 10 -8 0 -10 -18 -5 -68 9
-93 -1 -107 -75 -96 -46 8 -56 13 -69 40 -14 27 -19 29 -43 21 -20 -6 -34 -5
-51 6 -26 18 -60 82 -51 97 3 6 -5 10 -19 10 -14 0 -27 -4 -31 -10 -4 -6 -15
-6 -31 0 -14 6 -39 10 -55 10 -33 0 -79 20 -98 44 -8 9 -19 15 -25 14 -6 -1
-31 -3 -56 -5z m270 -105 c0 -16 -3 -19 -11 -11 -6 6 -8 16 -5 22 11 17 16 13
16 -11z m-304 -90 c8 -26 -25 -58 -60 -58 -37 0 -38 12 -4 47 37 39 54 41 64
11z m-126 -78 c0 -13 -7 -20 -18 -20 -10 0 -23 -5 -29 -11 -16 -16 -43 -4 -43
20 0 22 13 29 58 30 26 1 32 -3 32 -19z m506 -47 c-10 -10 -19 5 -10 18 6 11
8 11 12 0 2 -7 1 -15 -2 -18z m265 -46 c-8 -8 -11 -3 -11 19 1 25 2 27 11 11
8 -14 8 -22 0 -30z m-656 -87 c-8 -14 -32 -13 -41 2 -4 6 1 17 12 25 15 11 19
11 27 -2 4 -8 5 -20 2 -25z m-98 5 c12 -13 13 -18 3 -31 -11 -13 -15 -13 -31
2 -14 13 -16 20 -8 31 14 17 17 16 36 -2z m-72 -15 c-3 -5 -10 -10 -16 -10 -5
0 -9 5 -9 10 0 6 7 10 16 10 8 0 12 -4 9 -10z m835 -101 c0 -6 -4 -7 -10 -4
-5 3 -10 11 -10 16 0 6 5 7 10 4 6 -3 10 -11 10 -16z m280 -23 c0 -3 -4 -8
-10 -11 -5 -3 -10 -1 -10 4 0 6 5 11 10 11 6 0 10 -2 10 -4z m-1057 -63 c4 -2
7 -11 7 -18 0 -11 -10 -13 -43 -9 -39 6 -44 4 -55 -20 -12 -26 -13 -26 -42
-11 -16 9 -30 20 -30 26 0 8 -5 7 -15 -1 -13 -11 -14 -10 -9 4 3 9 11 15 18
14 6 -1 21 2 34 6 14 5 28 3 37 -4 11 -9 16 -7 25 9 8 17 17 20 38 15 15 -4
30 -9 35 -11z m102 7 c3 -5 -1 -10 -9 -10 -9 0 -16 5 -16 10 0 6 4 10 9 10 6
0 13 -4 16 -10z m-67 -177 c13 -26 4 -43 -23 -43 -32 0 -37 12 -19 38 18 27
30 28 42 5z m-158 -69 c0 -17 -22 -14 -28 4 -2 7 3 12 12 12 9 0 16 -7 16 -16z
m-94 -50 c8 -31 -7 -44 -53 -44 -46 0 -48 13 -5 43 47 32 50 32 58 1z m-314
-39 c0 -5 -5 -11 -11 -13 -6 -2 -11 4 -11 13 0 9 5 15 11 13 6 -2 11 -8 11
-13z m176 9 c-3 -3 -19 -7 -35 -9 -15 -2 -33 -4 -38 -5 -27 -6 -66 1 -60 10 3
6 36 10 72 10 37 0 64 -3 61 -6z"/>
<path d="M15400 7605 c0 -8 4 -15 10 -15 5 0 7 7 4 15 -4 8 -8 15 -10 15 -2 0
-4 -7 -4 -15z"/>
<path d="M12578 7603 c6 -2 18 -2 25 0 6 3 1 5 -13 5 -14 0 -19 -2 -12 -5z"/>
<path d="M12676 7595 c-7 -19 5 -19 30 0 19 14 19 14 -2 15 -12 0 -24 -7 -28
-15z"/>
<path d="M14111 7574 c0 -11 3 -14 6 -6 3 7 2 16 -1 19 -3 4 -6 -2 -5 -13z"/>
<path d="M14101 7534 c0 -11 3 -14 6 -6 3 7 2 16 -1 19 -3 4 -6 -2 -5 -13z"/>
<path d="M15281 7545 c1 -19 18 -51 18 -35 0 8 -4 22 -9 30 -5 8 -9 11 -9 5z"/>
<path d="M10075 7314 c3 -93 8 -207 11 -254 13 -192 26 -580 28 -805 1 -132 7
-294 13 -360 7 -66 13 -160 14 -209 1 -49 6 -106 10 -125 9 -40 25 -253 34
-461 10 -201 13 -238 25 -261 7 -12 15 -120 21 -252 5 -128 13 -257 19 -287
24 -126 30 -200 25 -292 -4 -62 -3 -98 3 -98 6 0 12 -19 15 -42 3 -24 11 -70
18 -103 10 -53 13 -57 22 -37 12 27 37 29 37 2 0 -11 5 -20 11 -20 6 0 8 9 4
21 -10 31 -16 68 -18 119 -1 25 -6 50 -10 57 -4 6 -2 13 5 15 16 6 -8 386 -27
408 -23 28 -25 99 -4 139 20 38 24 61 11 61 -4 0 -6 28 -4 63 2 40 -4 93 -18
152 -11 50 -25 110 -31 135 -5 25 -12 104 -14 175 -8 245 -23 440 -38 490 -9
28 -18 91 -22 140 -4 50 -17 126 -29 170 -16 54 -22 98 -20 135 3 30 6 121 8
202 3 137 9 193 23 236 4 15 3 15 -6 2 -9 -13 -11 -12 -11 5 0 11 -6 38 -14
59 -14 40 -11 76 6 76 5 0 6 5 2 11 -14 24 -25 88 -30 189 -3 58 -11 138 -19
179 -18 87 -19 121 -4 121 12 0 1 232 -12 240 -4 3 -8 14 -8 25 1 43 -13 131
-21 139 -5 5 -7 -60 -5 -160z"/>
<path d="M15405 7435 c9 -40 35 -98 42 -92 6 7 -17 76 -35 102 -12 18 -13 18
-7 -10z"/>
<path d="M14062 7388 c-23 -48 -53 -183 -35 -163 5 6 17 35 27 65 10 30 23 65
29 78 7 15 7 26 1 32 -7 7 -14 3 -22 -12z"/>
<path d="M18290 7364 c0 -8 5 -12 10 -9 6 4 8 11 5 16 -9 14 -15 11 -15 -7z"/>
<path d="M15451 7314 c0 -11 3 -14 6 -6 3 7 2 16 -1 19 -3 4 -6 -2 -5 -13z"/>
<path d="M18276 7287 c-3 -17 -10 -106 -16 -197 -12 -200 -29 -400 -36 -419
-2 -8 1 -29 7 -48 10 -31 14 -34 38 -26 14 4 51 8 81 8 53 1 149 25 180 45 12
7 16 36 18 128 4 141 -3 155 -94 187 -52 19 -59 24 -59 48 1 15 -2 27 -5 27
-3 0 -7 8 -8 18 -5 44 -10 77 -11 81 0 2 -9 -3 -18 -10 -16 -13 -17 -12 -4 4
11 14 11 21 3 29 -7 7 -12 20 -12 31 0 17 -47 127 -55 127 -1 0 -6 -15 -9 -33z"/>
<path d="M14005 7170 c3 -5 11 -10 16 -10 6 0 7 5 4 10 -3 6 -11 10 -16 10 -6
0 -7 -4 -4 -10z"/>
<path d="M14150 7160 c-8 -14 -8 -26 -2 -32 6 -6 12 0 16 17 9 35 1 43 -14 15z"/>
<path d="M13965 7100 c-3 -5 -1 -10 4 -10 6 0 11 5 11 10 0 6 -2 10 -4 10 -3
0 -8 -4 -11 -10z"/>
<path d="M14052 7075 c0 -16 2 -22 5 -12 2 9 2 23 0 30 -3 6 -5 -1 -5 -18z"/>
<path d="M16840 7088 c0 -9 5 -20 10 -23 13 -8 13 5 0 25 -8 13 -10 13 -10 -2z"/>
<path d="M15400 7083 c0 -6 3 -13 7 -17 17 -16 11 -82 -7 -71 -4 3 -10 -2 -14
-10 -3 -8 -1 -17 4 -20 6 -4 10 -19 10 -35 0 -19 6 -30 17 -32 12 -2 18 -15
20 -42 2 -38 54 -159 73 -171 5 -3 7 -12 4 -20 -3 -8 -2 -20 2 -27 5 -7 9 -19
9 -27 0 -8 5 -16 11 -18 12 -4 26 46 17 61 -4 5 -7 23 -8 40 -2 33 -28 132
-47 180 l-12 29 -9 -24 c-7 -18 -11 -20 -15 -9 -3 8 -10 18 -16 23 -7 5 -4 13
10 25 21 17 21 20 7 53 -16 34 -16 34 -22 9 -4 -15 -10 -20 -14 -13 -4 6 -3
23 2 36 11 29 1 79 -17 85 -7 2 -12 0 -12 -5z m87 -265 c-3 -7 -5 -2 -5 12 0
14 2 19 5 13 2 -7 2 -19 0 -25z m22 -42 c7 -8 8 -16 4 -19 -11 -7 -45 18 -36
26 10 11 19 8 32 -7z"/>
<path d="M15448 6683 c5 -21 7 -23 10 -9 2 10 0 22 -6 28 -6 6 -7 0 -4 -19z"/>
<path d="M15410 6610 c0 -5 5 -10 10 -10 6 0 10 5 10 10 0 6 -4 10 -10 10 -5
0 -10 -4 -10 -10z"/>
<path d="M14706 6314 c-3 -9 -6 -27 -6 -40 0 -13 -4 -24 -10 -24 -5 0 -10 -5
-10 -11 0 -5 5 -7 10 -4 6 4 10 -6 10 -22 0 -22 -2 -25 -10 -13 -8 12 -10 11
-10 -7 0 -13 4 -23 9 -23 15 0 26 36 38 123 5 37 -9 52 -21 21z"/>
<path d="M15605 6289 c-4 -6 -5 -12 -2 -15 2 -3 7 2 10 11 7 17 1 20 -8 4z"/>
<path d="M14897 6224 c-4 -4 -7 -14 -7 -23 0 -11 3 -12 11 -4 6 6 10 16 7 23
-2 6 -7 8 -11 4z"/>
<path d="M14729 6205 c-4 -44 -8 -73 -14 -97 -9 -34 9 -38 20 -5 10 30 12 117
3 117 -5 0 -9 -7 -9 -15z"/>
<path d="M14932 6185 c0 -16 2 -22 5 -12 2 9 2 23 0 30 -3 6 -5 -1 -5 -18z"/>
<path d="M15390 6157 c0 -9 5 -19 10 -22 6 -3 10 -13 10 -21 0 -8 -4 -12 -10
-9 -12 7 -13 -15 -2 -32 14 -23 36 5 37 46 0 23 -3 41 -6 41 -4 0 -14 3 -23 6
-10 4 -16 1 -16 -9z"/>
<path d="M14701 6053 c-1 -13 -5 -23 -10 -23 -5 0 -6 -10 -3 -22 5 -21 7 -20
14 10 5 19 7 39 4 45 -2 7 -5 2 -5 -10z"/>
<path d="M15412 6038 c3 -7 13 -15 24 -17 16 -3 17 -1 5 13 -16 19 -34 21 -29
4z"/>
<path d="M17339 6033 c-6 -28 -6 -74 -1 -69 7 8 13 76 7 76 -3 0 -6 -3 -6 -7z"/>
<path d="M15485 6010 c3 -5 8 -10 11 -10 2 0 4 5 4 10 0 6 -5 10 -11 10 -5 0
-7 -4 -4 -10z"/>
<path d="M15447 5987 c-4 -10 -3 -26 2 -34 11 -21 19 -4 11 27 -5 22 -7 23
-13 7z"/>
<path d="M17321 5864 c0 -11 3 -14 6 -6 3 7 2 16 -1 19 -3 4 -6 -2 -5 -13z"/>
<path d="M13750 5839 c0 -5 5 -7 10 -4 6 3 10 8 10 11 0 2 -4 4 -10 4 -5 0
-10 -5 -10 -11z"/>
<path d="M6151 5583 c-1 -16 -6 -20 -20 -16 -16 4 -21 -2 -27 -31 -7 -41 -7
-43 21 -48 16 -2 20 5 27 42 5 25 6 52 4 60 -2 9 -4 6 -5 -7z"/>
<path d="M19000 5575 c-69 -8 -126 -14 -127 -14 -8 -3 -2 -491 6 -495 5 -4 75
-3 155 0 l146 7 0 259 0 258 -27 -1 c-16 -1 -84 -7 -153 -14z m27 -177 c-3 -8
-6 -5 -6 6 -1 11 2 17 5 13 3 -3 4 -12 1 -19z m-74 -53 c-5 -16 -33 -21 -33
-7 0 13 22 32 31 26 5 -2 6 -11 2 -19z m77 -20 c0 -8 -2 -15 -4 -15 -2 0 -6 7
-10 15 -3 8 -1 15 4 15 6 0 10 -7 10 -15z m-70 -39 c0 -3 -4 -8 -10 -11 -5 -3
-10 -1 -10 4 0 6 5 11 10 11 6 0 10 -2 10 -4z"/>
<path d="M2708 5439 c-22 -12 -24 -58 -3 -66 20 -7 21 -6 29 40 7 39 3 43 -26
26z"/>
<path d="M6090 5403 c0 -25 5 -43 13 -46 11 -4 12 3 7 34 -10 55 -20 60 -20
12z"/>
<path d="M6060 5289 c-6 -19 -14 -52 -16 -74 -3 -22 -7 -46 -9 -52 -5 -14 23
-17 41 -5 6 4 14 23 17 42 3 19 9 44 12 56 4 12 -1 29 -13 44 l-19 23 -13 -34z"/>
<path d="M6015 5068 c-3 -24 -10 -65 -14 -93 -4 -27 -17 -77 -29 -110 -33 -96
-52 -171 -52 -205 0 -40 -30 -140 -98 -327 -17 -46 -26 -85 -22 -88 11 -7 70
55 70 73 0 7 7 26 15 42 17 33 44 128 50 180 9 66 48 215 66 252 22 43 46 128
60 208 5 30 12 67 15 83 6 25 4 27 -24 27 -27 0 -30 -4 -37 -42z"/>
<path d="M15630 4913 c0 -5 10 -19 21 -33 l20 -25 -16 33 c-15 30 -25 41 -25
25z"/>
<path d="M2320 4702 c-90 -91 -48 -302 61 -302 17 0 43 7 58 15 81 41 81 259
0 300 -45 24 -87 19 -119 -13z"/>
<path d="M15977 4543 c-7 -11 10 -40 18 -31 4 4 3 14 -3 24 -5 9 -12 12 -15 7z"/>
<path d="M15907 4533 c-13 -13 -7 -32 19 -58 14 -14 29 -23 33 -20 3 4 -2 12
-11 19 -10 7 -15 16 -12 19 3 3 0 15 -8 26 -8 12 -18 18 -21 14z"/>
<path d="M15706 4421 c-17 -18 -13 -51 6 -51 6 0 8 7 4 15 -6 16 9 21 18 6 8
-12 56 -20 56 -10 0 5 -4 9 -8 9 -5 0 -14 11 -20 25 -14 30 -33 32 -56 6z"/>
<path d="M15895 4410 c3 -5 8 -10 11 -10 2 0 4 5 4 10 0 6 -5 10 -11 10 -5 0
-7 -4 -4 -10z"/>
<path d="M15851 4391 c-7 -5 -9 -11 -5 -14 5 -3 15 1 22 9 14 16 5 18 -17 5z"/>
<path d="M15092 4209 c-1 -17 -6 -39 -11 -48 -9 -18 -26 -114 -36 -208 l-7
-63 -28 17 c-15 9 -35 13 -44 10 -23 -9 -46 -68 -46 -116 0 -21 -9 -58 -20
-82 -25 -56 -25 -86 0 -99 11 -6 20 -17 20 -24 0 -20 44 -66 63 -66 9 0 17 7
17 15 0 9 13 24 30 33 16 9 30 20 30 25 0 17 28 5 39 -17 7 -13 24 -29 37 -36
37 -20 46 -61 29 -132 -8 -34 -12 -65 -9 -69 8 -14 -23 -64 -48 -77 -50 -26
-213 -72 -261 -73 -59 -2 -124 22 -134 48 -3 10 -15 28 -26 40 -21 24 -56 23
-107 -4 -14 -7 -32 -13 -40 -13 -28 0 -105 -34 -175 -77 -38 -24 -72 -43 -76
-43 -10 0 -114 -64 -152 -93 -37 -28 -92 -40 -268 -57 -64 -7 -122 -15 -128
-20 -18 -11 108 -21 171 -14 29 3 73 1 98 -5 25 -6 140 -16 255 -22 207 -11
242 -13 400 -23 71 -4 84 -2 120 18 22 13 51 27 64 31 13 4 40 14 60 23 l36
15 -30 8 c-16 5 -149 7 -295 4 -295 -6 -400 -1 -378 20 14 14 176 76 246 95
24 6 56 10 70 9 15 -2 37 2 49 9 25 14 80 16 85 3 2 -5 39 -11 83 -14 108 -7
165 -15 179 -25 6 -5 43 -12 81 -15 59 -4 75 -2 103 15 48 30 97 100 132 189
35 92 38 119 11 119 -38 0 -68 59 -86 170 -39 245 -42 411 -9 584 2 10 -1 26
-6 35 -8 14 -9 14 -15 -1 -10 -26 -34 -22 -47 7 -15 33 -23 32 -26 -6z"/>
<path d="M4985 4146 c-30 -12 -30 -13 -8 -24 26 -15 73 -15 93 -2 13 9 12 12
-5 22 -29 17 -46 18 -80 4z"/>
<path d="M4890 4130 c0 -5 5 -10 10 -10 6 0 10 5 10 10 0 6 -4 10 -10 10 -5 0
-10 -4 -10 -10z"/>
<path d="M5768 4101 c-11 -49 -10 -67 3 -54 6 6 9 28 7 49 l-3 39 -7 -34z"/>
<path d="M18291 4101 c-18 -33 -13 -51 14 -51 18 0 25 5 25 20 0 11 -5 20 -11
20 -5 0 -8 4 -4 9 3 5 1 12 -4 16 -6 3 -15 -3 -20 -14z"/>
<path d="M18220 4070 c0 -5 5 -10 10 -10 6 0 10 5 10 10 0 6 -4 10 -10 10 -5
0 -10 -4 -10 -10z"/>
<path d="M10318 3656 c-2 -19 -1 -43 3 -53 5 -11 8 2 8 35 1 59 -5 69 -11 18z"/>
<path d="M10370 3639 c0 -42 3 -52 20 -56 32 -8 23 -23 -14 -23 -19 0 -36 6
-39 13 -11 31 -16 -5 -7 -57 6 -40 6 -73 -3 -109 -6 -29 -12 -95 -12 -147 0
-52 -4 -101 -8 -107 -5 -7 -21 -13 -37 -13 -16 0 -32 -4 -35 -10 -8 -13 -56
-13 -89 0 -21 7 -26 6 -26 -5 0 -19 -2 -19 -61 2 -30 11 -47 23 -45 30 6 16
-37 23 -139 25 -118 1 -194 -13 -240 -45 -22 -15 -44 -27 -50 -27 -5 0 -21
-12 -34 -25 -15 -17 -18 -23 -7 -19 10 4 16 1 16 -10 0 -8 9 -20 20 -26 26
-14 201 -50 270 -56 30 -2 87 -11 125 -18 39 -8 104 -17 145 -21 41 -3 98 -13
125 -22 59 -18 153 -62 161 -74 17 -28 44 -158 44 -213 0 -36 4 -67 10 -71 17
-11 44 47 52 113 4 36 12 70 17 75 6 6 7 22 4 38 -3 15 0 43 6 62 14 41 -9
258 -30 283 -8 10 -12 53 -10 144 1 119 0 131 -19 150 -11 11 -18 25 -15 30 5
7 -14 51 -63 154 -3 5 0 6 7 2 12 -8 14 7 5 53 -5 21 -12 31 -25 31 -16 0 -19
-8 -19 -51z"/>
<path d="M3165 3590 c3 -5 14 -10 23 -10 15 0 15 2 2 10 -20 13 -33 13 -25 0z"/>
<path d="M13981 3353 c-8 -15 -14 -16 -43 -5 -43 15 -81 17 -58 2 12 -8 12
-10 -5 -10 -11 0 -40 5 -64 11 -36 8 -45 7 -55 -7 -10 -13 -17 -14 -34 -5 -26
14 -86 15 -77 1 8 -13 -9 -13 -56 1 -30 9 -42 9 -53 0 -10 -8 -30 -10 -61 -5
-32 4 -50 3 -54 -5 -5 -8 -20 -7 -55 6 -46 17 -48 17 -62 -1 -12 -17 -17 -18
-39 -8 -38 18 -79 16 -71 -3 7 -19 -2 -19 -49 1 -41 17 -65 13 -65 -11 0 -18
-8 -18 -40 0 -34 20 -70 19 -70 -1 0 -13 -6 -15 -27 -9 -16 3 -35 13 -44 21
-24 22 -52 18 -46 -6 8 -30 -5 -31 -48 -6 -48 29 -77 24 -69 -11 l7 -25 -43
27 c-23 14 -48 24 -56 21 -22 -9 -16 -42 11 -60 51 -33 55 -87 6 -71 -15 4
-21 15 -21 35 0 21 -10 36 -39 59 -70 56 -126 30 -61 -27 31 -27 38 -46 20
-57 -15 -9 -40 13 -40 35 0 24 -62 70 -94 70 -33 0 -33 -20 -1 -50 14 -13 25
-31 25 -40 0 -41 -34 -32 -50 13 -15 48 -97 97 -114 69 -3 -5 6 -25 21 -45 24
-33 25 -57 2 -57 -6 0 -16 15 -24 34 -14 34 -42 57 -83 70 -32 11 -40 -19 -13
-48 23 -24 27 -51 10 -62 -24 -14 17 -22 130 -24 64 -1 168 -4 231 -6 314 -14
350 -15 350 -3 0 8 13 10 41 5 22 -4 45 -3 52 1 19 12 49 12 107 1 30 -5 60
-10 65 -9 6 0 96 2 200 3 188 3 190 3 193 26 4 27 32 43 97 54 28 5 73 13 100
18 28 5 79 9 115 9 58 1 73 6 124 38 54 33 57 37 40 50 -25 18 -51 16 -63 -4z
m-1184 -105 c27 -26 30 -48 6 -48 -27 0 -39 12 -45 43 -6 33 7 35 39 5z m251
-27 c3 -16 -2 -21 -17 -21 -12 0 -22 6 -22 13 -1 6 -3 22 -4 35 -2 21 -1 22
19 9 11 -8 22 -24 24 -36z m-129 20 c8 -14 7 -22 -4 -31 -11 -9 -16 -7 -23 7
-10 20 -6 43 8 43 5 0 14 -9 19 -19z m251 -1 c21 -21 19 -40 -5 -40 -18 0 -45
28 -45 46 0 20 27 17 50 -6z m110 5 c15 -18 5 -35 -21 -35 -12 0 -19 7 -19 18
0 33 20 42 40 17z m120 -11 c0 -8 -4 -12 -10 -9 -5 3 -10 13 -10 21 0 8 5 12
10 9 6 -3 10 -13 10 -21z m140 -4 c0 -5 -4 -10 -10 -10 -5 0 -10 5 -10 10 0 6
5 10 10 10 6 0 10 -4 10 -10z"/>
<path d="M11714 3287 c-3 -8 0 -26 6 -42 14 -38 -2 -54 -24 -24 -30 43 -48
-13 -19 -58 5 -6 28 -13 53 -16 63 -7 95 16 85 62 -13 62 -85 118 -101 78z"/>
<path d="M11843 3292 c-25 -4 -29 -12 -12 -29 6 -6 14 -26 18 -45 6 -29 11
-33 44 -36 35 -3 37 -1 37 25 0 51 -43 93 -87 85z"/>
<path d="M11943 3285 c-3 -9 2 -24 12 -35 11 -13 15 -28 11 -44 -7 -27 7 -36
54 -36 38 0 44 12 26 55 -26 61 -88 97 -103 60z"/>
<path d="M12060 3281 c0 -10 7 -24 16 -32 10 -8 14 -23 12 -41 -5 -33 18 -44
64 -31 26 8 26 9 13 45 -15 44 -50 77 -82 78 -16 0 -23 -6 -23 -19z"/>
<path d="M10130 3210 c0 -5 9 -10 20 -10 11 0 20 5 20 10 0 6 -9 10 -20 10
-11 0 -20 -4 -20 -10z"/>
<path d="M4080 3175 c0 -17 22 -45 35 -45 8 0 15 3 15 8 -1 9 -50 46 -50 37z"/>
<path d="M13800 3080 c-11 -7 -7 -10 18 -10 17 0 32 5 32 10 0 13 -30 13 -50
0z"/>
<path d="M3315 2680 c-3 -5 -2 -10 4 -10 5 0 13 5 16 10 3 6 2 10 -4 10 -5 0
-13 -4 -16 -10z"/>
<path d="M3260 2665 c0 -16 16 -20 24 -6 3 5 -1 11 -9 15 -9 3 -15 0 -15 -9z"/>
<path d="M3145 2630 c4 -6 11 -8 16 -5 14 9 11 15 -7 15 -8 0 -12 -5 -9 -10z"/>
<path d="M14486 2619 c-18 -14 -26 -30 -26 -52 0 -20 -10 -43 -25 -61 -29 -34
-31 -51 -8 -65 15 -8 15 -11 3 -27 -14 -16 -12 -17 27 -11 24 4 69 20 100 35
32 16 69 33 82 38 23 10 22 11 -18 24 -39 13 -41 15 -41 55 0 65 -50 99 -94
64z m54 -139 c0 -4 -7 -7 -15 -6 -23 3 -26 12 -5 13 11 1 20 -2 20 -7z"/>
<path d="M14715 2550 c-20 -39 -14 -48 20 -26 29 19 31 29 11 45 -12 10 -18 7
-31 -19z"/>
<path d="M2713 2513 c9 -2 23 -2 30 0 6 3 -1 5 -18 5 -16 0 -22 -2 -12 -5z"/>
<path d="M2080 2461 l-24 -7 23 -16 c27 -19 61 -9 61 17 0 16 -19 18 -60 6z"/>
<path d="M2155 2462 c-27 -27 37 -54 98 -40 36 8 98 10 217 6 33 -1 69 5 90
15 19 8 44 17 55 20 11 2 -87 4 -217 4 -131 0 -240 -2 -243 -5z"/>
<path d="M2008 2434 c-16 -8 -28 -17 -28 -20 0 -9 43 8 58 22 17 18 4 17 -30
-2z"/>
<path d="M14664 2420 c-12 -5 -25 -13 -29 -19 -3 -6 -17 -11 -30 -11 -37 0
-105 -30 -105 -46 0 -22 47 -17 99 10 25 13 66 29 89 36 41 10 43 12 25 25
-21 17 -21 17 -49 5z"/>
<path d="M12615 2410 c4 -6 11 -8 16 -5 14 9 11 15 -7 15 -8 0 -12 -5 -9 -10z"/>
<path d="M12745 2410 c-4 -6 8 -10 29 -10 20 0 36 5 36 10 0 6 -13 10 -29 10
-17 0 -33 -4 -36 -10z"/>
<path d="M13545 2410 c3 -5 8 -10 11 -10 2 0 4 5 4 10 0 6 -5 10 -11 10 -5 0
-7 -4 -4 -10z"/>
<path d="M13590 2410 c0 -5 7 -10 16 -10 8 0 12 5 9 10 -3 6 -10 10 -16 10 -5
0 -9 -4 -9 -10z"/>
<path d="M14014 2409 c-2 -4 -2 -20 2 -34 4 -17 2 -25 -7 -26 -8 0 -65 0 -127
0 -63 0 -110 -4 -107 -9 3 -5 -2 -13 -11 -18 -30 -17 1 -21 152 -23 170 -2
264 7 264 26 0 7 14 27 32 44 l32 31 -38 0 c-20 0 -46 -5 -57 -10 -11 -6 -25
-7 -32 -3 -22 14 -97 30 -103 22z"/>
<path d="M3915 2390 c-7 -12 2 -12 30 0 19 8 19 9 -2 9 -12 1 -25 -3 -28 -9z"/>
<path d="M14753 2369 c-23 -4 -67 -20 -98 -34 -31 -15 -74 -29 -95 -32 -29 -4
-41 -11 -46 -27 -3 -11 -12 -28 -19 -36 -7 -8 -16 -32 -20 -52 -5 -25 -14 -39
-28 -44 -39 -12 10 -27 66 -20 67 9 71 13 48 42 -24 31 -19 47 28 97 42 45 80
67 115 67 19 0 58 15 95 38 13 7 -9 8 -46 1z"/>
<path d="M10477 2360 c-3 -8 -11 -33 -17 -55 -7 -22 -23 -57 -37 -77 -31 -45
-25 -65 20 -73 66 -13 237 26 237 53 0 10 -60 32 -87 32 -41 0 -55 13 -83 74
-17 38 -30 55 -33 46z"/>
<path d="M13700 2361 c0 -10 24 -21 43 -21 7 0 3 7 -7 15 -22 17 -36 19 -36 6z"/>
<path d="M2148 2353 c-24 -6 -23 -33 1 -33 31 0 73 19 66 30 -6 10 -35 11 -67
3z"/>
<path d="M11295 2351 c-3 -5 -1 -12 4 -15 13 -8 42 4 35 15 -7 12 -31 12 -39
0z"/>
<path d="M14310 2327 c-21 -21 -13 -53 16 -64 8 -3 14 -11 14 -19 0 -9 15 -2
43 19 23 17 54 40 67 49 l25 18 -28 -10 c-16 -6 -38 -10 -49 -10 -17 0 -18 2
-8 15 10 12 10 15 -1 16 -8 1 -25 3 -37 4 -13 1 -32 -7 -42 -18z"/>
<path d="M2920 2330 c0 -5 5 -10 10 -10 6 0 10 5 10 10 0 6 -4 10 -10 10 -5 0
-10 -4 -10 -10z"/>
<path d="M11210 2330 c0 -5 9 -10 20 -10 11 0 20 5 20 10 0 6 -9 10 -20 10
-11 0 -20 -4 -20 -10z"/>
<path d="M2080 2323 c-14 -3 -29 -9 -34 -14 -6 -5 -29 -9 -53 -9 -48 0 -113
-23 -113 -39 0 -25 79 -10 152 30 10 5 24 9 31 9 7 0 22 7 33 15 10 8 17 14
14 13 -3 0 -16 -3 -30 -5z"/>
<path d="M11020 2301 c0 -5 -7 -17 -16 -25 -14 -15 -12 -16 18 -16 18 0 51 12
73 25 l40 25 -57 0 c-32 0 -58 -4 -58 -9z"/>
<path d="M1681 2269 c-29 -10 -57 -16 -62 -14 -9 6 -79 -26 -79 -36 0 -14 21
-21 33 -11 7 6 30 13 52 15 47 6 98 23 140 49 l30 18 -30 -1 c-16 -1 -54 -10
-84 -20z"/>
<path d="M1246 2261 c-9 -14 20 -21 86 -21 43 0 59 3 56 13 -5 14 -134 22
-142 8z"/>
<path d="M1823 2248 c-25 -33 -24 -37 6 -27 35 12 50 39 22 39 -10 0 -23 -6
-28 -12z"/>
<path d="M14460 2250 c0 -5 5 -10 10 -10 6 0 10 5 10 10 0 6 -4 10 -10 10 -5
0 -10 -4 -10 -10z"/>
<path d="M1756 2231 c-5 -8 -93 -24 -138 -26 -9 0 -20 -3 -24 -7 -4 -5 -18 -8
-30 -8 -13 0 -25 -4 -29 -10 -3 -5 -46 -9 -95 -9 -49 0 -98 -5 -109 -10 -11
-6 -27 -11 -36 -11 -9 0 -28 -9 -42 -20 -15 -11 -41 -20 -62 -20 l-36 -1 27
-14 c24 -13 31 -13 73 5 26 11 56 20 66 20 11 0 30 5 41 11 17 9 24 8 34 -6
10 -13 21 -16 46 -12 133 23 165 30 183 42 11 7 38 16 60 19 45 8 68 23 78 49
7 18 2 23 -7 8z"/>
<path d="M10235 2169 c-32 -15 -63 -18 -152 -17 -93 1 -116 -2 -131 -16 -15
-12 -37 -16 -93 -16 -41 1 -83 1 -94 1 -724 -4 -765 -6 -765 -43 0 -6 86 -7
228 -3 166 5 258 4 342 -6 136 -16 266 -14 445 7 72 9 159 19 195 24 62 7 140
41 140 61 0 5 -12 11 -27 15 -16 3 -32 7 -38 8 -5 2 -28 -5 -50 -15z"/>
<path d="M14312 2181 c-49 -9 -43 -26 11 -29 26 -2 47 -1 47 2 0 12 -13 36
-19 35 -3 -1 -21 -4 -39 -8z"/>
<path d="M6118 2123 c7 -3 16 -2 19 1 4 3 -2 6 -13 5 -11 0 -14 -3 -6 -6z"/>
<path d="M6302 2113 c-20 -4 -23 -9 -17 -31 9 -37 12 -38 35 -17 19 17 28 56
13 54 -5 -1 -19 -4 -31 -6z"/>
<path d="M12690 2038 c33 -47 51 -60 49 -35 0 6 -19 28 -42 47 l-41 35 34 -47z"/>
<path d="M5748 2049 c-9 -6 -8 -12 5 -27 9 -10 20 -33 23 -51 5 -24 14 -36 34
-42 15 -6 37 -23 49 -39 12 -17 27 -30 34 -30 7 -1 24 -18 40 -38 76 -103 114
-145 131 -148 33 -5 134 -123 152 -178 20 -61 66 -107 130 -132 42 -16 45 -19
28 -31 -10 -7 -35 -13 -55 -13 -30 0 -48 -9 -84 -40 -25 -22 -52 -40 -58 -40
-20 0 -58 -63 -46 -75 7 -7 15 -4 24 9 8 10 18 15 24 11 18 -11 12 -24 -18
-40 -23 -11 -31 -12 -35 -2 -3 8 -9 7 -20 -7 -12 -15 -22 -17 -51 -12 -23 5
-42 3 -51 -5 -20 -17 -30 -3 -16 24 18 36 24 67 14 67 -6 0 -12 -4 -14 -9 -4
-10 -131 -89 -166 -102 -13 -5 -37 -18 -52 -29 -16 -11 -37 -20 -48 -20 -25 0
-108 -35 -126 -53 -8 -7 -13 -26 -12 -43 1 -25 -3 -29 -26 -30 -16 -1 -28 4
-28 12 0 18 -34 6 -60 -21 -22 -23 -39 -82 -20 -70 5 3 26 2 45 -4 24 -6 35
-6 35 1 0 6 8 7 18 3 9 -4 26 -8 37 -10 11 -1 23 -3 26 -4 4 0 10 -12 13 -26
4 -14 11 -25 17 -25 8 0 8 -4 0 -14 -9 -10 -7 -16 5 -27 12 -10 25 -10 55 -2
38 10 39 10 39 -16 0 -14 -11 -36 -24 -48 -20 -20 -24 -20 -22 -5 0 10 -7 18
-19 20 -18 2 -21 -3 -22 -38 -3 -61 -30 -144 -54 -166 -29 -27 -49 -68 -49
-103 0 -29 2 -30 39 -27 37 3 39 1 44 -27 2 -16 1 -47 -3 -68 -5 -25 -4 -36 3
-32 6 4 8 0 4 -11 -4 -10 -7 -22 -7 -26 0 -5 -13 -17 -29 -26 -21 -13 -28 -23
-25 -39 2 -13 -3 -28 -11 -35 -12 -10 -15 -10 -15 1 0 11 -2 11 -10 -1 -7 -10
-12 -12 -17 -4 -14 20 -36 21 -55 2 -10 -10 -25 -18 -33 -18 -9 0 -15 -9 -15
-22 0 -19 2 -20 10 -8 9 13 11 13 20 0 5 -8 10 -21 10 -27 0 -10 626 -13 3055
-13 l3055 0 0 24 c0 14 -12 37 -26 53 -14 15 -21 29 -15 31 7 2 6 13 -3 30 -7
15 -14 48 -15 75 -1 54 15 63 47 22 11 -13 22 -21 26 -18 3 4 13 -2 21 -13 12
-16 16 -17 24 -5 5 8 6 24 1 37 -15 39 -60 104 -73 106 -6 0 -18 2 -25 2 -8 1
-20 18 -27 39 -7 20 -17 43 -22 50 -6 6 -13 25 -17 42 -4 16 -13 33 -19 37 -9
6 -8 11 3 18 12 7 12 10 1 10 -8 0 -11 6 -7 16 5 12 1 14 -15 9 -17 -6 -20 -4
-13 6 13 20 11 79 -2 79 -6 0 -21 9 -34 20 -24 21 -51 24 -85 11 -13 -5 -26
-2 -40 12 -11 10 -30 23 -43 28 -30 12 -65 12 -58 0 3 -5 -7 -24 -24 -42 l-29
-34 -21 23 c-12 12 -19 26 -16 31 3 4 0 22 -7 40 -8 21 -18 31 -32 31 -12 0
-26 5 -33 12 -9 9 -12 9 -12 0 0 -13 -65 -45 -125 -61 -49 -13 -172 -14 -179
-2 -9 15 -69 20 -107 9 -29 -8 -42 -7 -75 10 -21 10 -61 20 -89 21 -82 2 -159
13 -173 24 -7 6 -32 14 -55 18 -23 4 -64 12 -92 18 -27 5 -73 12 -101 14 -27
2 -60 9 -72 16 -12 6 -31 16 -43 22 -11 5 -34 7 -51 4 -23 -5 -34 -2 -49 14
-11 12 -27 21 -37 21 -21 -1 -52 -23 -52 -39 0 -13 -9 -7 -55 37 -22 20 -25
32 -25 89 l0 67 -37 -62 c-21 -35 -42 -63 -48 -63 -5 0 -18 28 -27 62 -19 69
-25 75 -80 84 -22 4 -61 25 -95 51 -42 33 -63 43 -78 38 -176 -58 -282 -58
-194 0 26 18 38 31 32 37 -6 6 -55 17 -109 25 -54 9 -128 24 -164 35 -36 10
-83 22 -105 25 -60 8 -75 14 -75 30 0 18 -30 66 -47 77 -15 9 -17 47 -3 47 16
0 12 16 -12 54 -13 19 -30 35 -39 36 -9 0 -24 9 -33 19 -10 11 -28 22 -42 25
-13 4 -24 13 -24 21 0 9 -12 21 -27 28 -16 6 -31 16 -35 21 -4 6 -16 5 -32 -4
-21 -11 -33 -11 -63 -1 -30 9 -47 9 -83 -1 -39 -12 -45 -18 -51 -48 -15 -73
-16 -106 -3 -139 8 -18 14 -43 14 -55 0 -40 24 -71 51 -68 54 6 104 -87 86
-161 -47 -184 -51 -196 -81 -207 -58 -20 -74 -14 -111 45 -32 49 -37 54 -55
43 -16 -10 -22 -10 -32 5 -15 20 -70 28 -111 16 -16 -5 -25 -4 -22 2 4 5 -8 9
-25 9 -18 0 -33 6 -36 15 -4 8 -10 15 -16 15 -5 0 -6 -5 -3 -10 9 -15 -54 -9
-88 7 -37 18 -107 8 -152 -23 -54 -36 -71 -35 -67 3 3 31 3 32 -29 23 -17 -5
-34 -9 -38 -8 -3 1 -30 -6 -60 -15 -67 -21 -82 -21 -75 -2 4 10 0 15 -15 15
-12 0 -21 -6 -21 -15 0 -8 -5 -15 -11 -15 -5 0 -7 -4 -4 -10 3 -5 -6 -12 -20
-16 -14 -3 -25 -11 -25 -18 0 -6 -12 2 -26 17 -19 22 -28 26 -38 18 -7 -6 -30
-12 -52 -15 -21 -2 -59 -9 -83 -15 -42 -12 -43 -13 -22 -27 25 -18 27 -37 5
-55 -12 -10 -20 -10 -35 -1 -10 7 -27 12 -36 12 -28 0 -97 -27 -101 -39 -2 -6
-10 -11 -18 -11 -45 0 35 -47 91 -53 l30 -3 -34 -10 c-19 -5 -38 -16 -42 -24
-32 -66 -33 -70 -20 -94 18 -33 7 -46 -37 -46 -44 1 -85 26 -63 39 11 7 9 11
-7 20 -13 7 -19 17 -16 26 4 11 -1 15 -17 16 -13 0 -19 3 -12 5 8 4 7 11 -5
25 -19 22 -42 25 -42 7 0 -10 -2 -10 -8 -1 -4 7 -19 16 -32 22 -18 7 -20 10
-7 10 9 1 17 7 17 14 0 7 25 35 55 62 30 28 55 55 55 60 0 25 26 65 43 65 10
0 15 5 12 10 -3 6 1 10 9 10 17 0 58 49 51 61 -6 9 46 39 68 39 8 0 22 9 32
20 10 11 22 20 27 20 6 0 18 10 27 22 15 18 39 24 157 39 76 10 168 21 204 25
36 4 81 15 102 25 20 10 55 21 78 25 49 8 70 26 70 60 0 27 0 27 -78 41 -48 9
-55 8 -67 -10 -11 -16 -25 -19 -76 -18 -45 0 -65 5 -71 16 -5 8 -14 15 -19 15
-6 0 -23 8 -37 19 -15 10 -54 24 -87 30 -33 7 -69 16 -80 21 -19 9 -175 39
-175 34 0 -9 76 -44 95 -44 15 0 31 -10 40 -24 11 -16 30 -27 55 -31 74 -12
75 -56 3 -71 -28 -6 -34 -3 -44 20 -10 20 -19 26 -44 26 -18 0 -38 7 -46 16
-8 10 -21 13 -36 9 -14 -3 -36 1 -55 12 -23 14 -32 15 -35 6 -7 -20 -40 -15
-86 11 -23 13 -60 26 -82 30 l-40 6 30 -20 c16 -11 43 -25 60 -32 64 -26 49
-48 -33 -48 -48 0 -53 -2 -63 -27 -8 -20 -8 -37 1 -61 10 -30 9 -34 -19 -62
-16 -17 -39 -30 -50 -30 -26 0 -26 5 0 33 20 22 20 22 1 37 -11 8 -34 23 -52
33 -32 17 -33 19 -27 72 5 52 4 55 -29 83 -19 16 -34 34 -34 39 0 5 -22 33
-50 62 -27 29 -50 56 -50 60 0 4 -13 23 -30 41 -16 18 -30 39 -30 46 0 6 -7
17 -15 24 -8 7 -15 22 -16 34 0 11 -3 16 -5 10 -6 -15 -73 16 -74 34 0 6 -3
12 -8 12 -4 0 -21 12 -37 28 -16 15 -40 28 -53 29 -13 1 -39 13 -57 27 -19 15
-39 26 -45 26 -6 0 -8 5 -4 13 6 8 3 8 -9 -2 -19 -15 -47 -8 -47 11 0 17 -86
57 -102 47z m1036 -615 c25 -10 19 -43 -10 -54 -38 -15 -44 -13 -44 19 0 35
20 48 54 35z m1897 -418 c17 -36 4 -76 -25 -76 -32 0 -53 41 -38 75 15 32 49
33 63 1z m-2908 -73 c-17 -25 -28 -29 -38 -13 -12 19 4 40 29 38 22 -2 23 -3
9 -25z m2324 -42 c-1 -11 -9 -22 -18 -24 -21 -6 -35 23 -17 35 22 13 37 9 35
-11z m-1337 -741 c0 -5 -4 -10 -10 -10 -5 0 -10 5 -10 10 0 6 5 10 10 10 6 0
10 -4 10 -10z"/>
<path d="M14404 2045 c11 -8 22 -12 25 -9 6 6 -19 24 -34 24 -5 -1 -1 -7 9
-15z"/>
<path d="M6180 2036 c0 -9 5 -16 10 -16 6 0 10 4 10 9 0 6 -4 13 -10 16 -5 3
-10 -1 -10 -9z"/>
<path d="M837 2004 c-4 -4 -25 -8 -47 -9 -26 -2 -50 -10 -64 -24 -19 -18 -43
-24 -145 -33 -85 -8 -124 -15 -128 -25 -3 -7 -12 -13 -21 -13 -13 0 -12 3 4
16 17 14 9 15 -98 10 -64 -3 -122 -8 -130 -11 -7 -3 -14 -17 -14 -31 -2 -25
-1 -25 52 -18 63 7 70 -4 19 -32 -19 -10 -35 -23 -35 -28 0 -12 72 0 80 14 4
6 34 15 67 20 84 14 212 46 291 75 37 13 87 29 112 35 69 18 114 41 98 51 -16
10 -32 11 -41 3z m-457 -94 c0 -5 -7 -10 -15 -10 -8 0 -15 5 -15 10 0 6 7 10
15 10 8 0 15 -4 15 -10z"/>
<path d="M12755 1960 c10 -11 20 -20 22 -20 2 0 -1 9 -7 20 -6 11 -16 20 -22
20 -6 0 -3 -9 7 -20z"/>
<path d="M7113 1955 c-17 -7 -34 -11 -37 -8 -12 12 -55 10 -60 -2 -2 -7 3 -21
12 -31 10 -11 27 -32 39 -47 12 -15 37 -39 57 -52 37 -25 142 -62 151 -53 10
10 -35 133 -59 159 -20 23 -58 50 -68 49 -2 -1 -17 -7 -35 -15z"/>
<path d="M15055 1950 c-3 -5 1 -10 10 -10 9 0 13 5 10 10 -3 6 -8 10 -10 10
-2 0 -7 -4 -10 -10z"/>
<path d="M61 1917 c2 -1 11 -8 19 -14 11 -9 20 -8 34 3 18 13 17 14 -19 14
-21 0 -36 -1 -34 -3z"/>
<path d="M191 1804 c0 -11 3 -14 6 -6 3 7 2 16 -1 19 -3 4 -6 -2 -5 -13z"/>
<path d="M121 1801 c-10 -7 -10 -10 -1 -16 6 -4 16 -3 22 3 13 13 -4 23 -21
13z"/>
<path d="M3332 1783 c-23 -2 -40 -8 -38 -12 6 -9 127 -4 189 9 37 7 32 8 -33
7 -41 0 -94 -2 -118 -4z"/>
<path d="M14902 1768 c7 -21 36 -34 48 -22 9 9 3 14 -20 22 -24 9 -31 9 -28 0z"/>
<path d="M4160 1763 c0 -10 66 -10 76 0 4 4 -11 7 -34 7 -23 0 -42 -3 -42 -7z"/>
<path d="M4251 1765 c10 -9 206 -14 259 -6 44 7 23 9 -104 10 -88 0 -157 -1
-155 -4z"/>
<path d="M2205 1746 c-21 -9 -25 -14 -14 -18 8 -3 23 0 34 8 26 19 16 25 -20
10z"/>
<path d="M12920 1755 c0 -6 14 -26 30 -45 17 -19 26 -26 21 -15 -16 30 -51 71
-51 60z"/>
<path d="M955 1740 l-40 -7 35 -1 c19 0 46 4 60 8 32 10 2 10 -55 0z"/>
<path d="M1470 1729 c0 -5 5 -7 10 -4 6 3 10 8 10 11 0 2 -4 4 -10 4 -5 0 -10
-5 -10 -11z"/>
<path d="M2126 1715 c-15 -8 -40 -15 -55 -15 -20 0 -23 -2 -11 -10 23 -15 67
-12 74 5 3 8 15 15 26 15 12 0 18 5 15 10 -8 13 -15 13 -49 -5z"/>
<path d="M1210 1678 c-24 -11 -45 -17 -47 -12 -4 12 -153 2 -177 -12 -17 -10
-15 -12 15 -17 39 -6 182 -1 219 8 14 4 54 8 90 10 36 2 76 7 90 13 23 9 23 9
5 19 -38 18 -147 14 -195 -9z"/>
<path d="M15310 1690 c0 -5 7 -10 16 -10 8 0 12 5 9 10 -3 6 -10 10 -16 10 -5
0 -9 -4 -9 -10z"/>
<path d="M1960 1661 c-8 -6 -17 -8 -21 -5 -4 2 -10 0 -14 -6 -3 -5 -21 -10
-39 -10 -18 0 -36 -3 -40 -7 -4 -4 -39 -19 -79 -33 -47 -17 -76 -34 -83 -48
-6 -12 -14 -19 -17 -15 -4 3 -7 2 -7 -4 0 -6 11 -10 25 -10 13 0 22 3 20 7 -3
5 4 6 15 3 21 -6 88 22 105 43 11 14 121 45 129 36 3 -3 6 0 6 6 0 7 14 12 33
12 17 0 43 3 56 7 21 5 20 7 -15 19 -46 16 -54 17 -74 5z"/>
<path d="M15190 1659 c0 -5 5 -7 10 -4 6 3 10 8 10 11 0 2 -4 4 -10 4 -5 0
-10 -5 -10 -11z"/>
<path d="M14919 1638 c-7 -13 -17 -26 -23 -30 -8 -5 -7 -11 2 -20 9 -9 12 -9
12 5 0 9 7 17 15 17 12 0 35 28 35 44 0 16 -31 3 -41 -16z"/>
<path d="M14970 1640 c0 -5 5 -10 11 -10 5 0 7 5 4 10 -3 6 -8 10 -11 10 -2 0
-4 -4 -4 -10z"/>
<path d="M885 1620 c-3 -5 1 -10 9 -10 8 0 18 5 21 10 3 6 -1 10 -9 10 -8 0
-18 -4 -21 -10z"/>
<path d="M15005 1603 c8 -35 14 -41 24 -25 6 10 14 8 33 -8 26 -20 58 -27 58
-12 0 10 -93 72 -109 72 -9 0 -11 -8 -6 -27z"/>
<path d="M940 1580 c0 -5 5 -10 10 -10 6 0 10 5 10 10 0 6 -4 10 -10 10 -5 0
-10 -4 -10 -10z"/>
<path d="M7522 1578 c-17 -17 -15 -23 13 -36 34 -15 35 -15 35 6 0 17 -18 42
-30 42 -3 0 -11 -5 -18 -12z"/>
<path d="M435 1570 c-3 -5 -1 -10 4 -10 6 0 11 5 11 10 0 6 -2 10 -4 10 -3 0
-8 -4 -11 -10z"/>
<path d="M1547 1553 c-16 -3 -31 -11 -33 -18 -3 -8 -12 -11 -19 -8 -16 6 -82
-14 -90 -28 -3 -5 6 -6 22 -4 15 3 37 7 48 8 11 2 37 11 59 20 21 9 42 17 47
17 4 0 11 5 14 10 6 10 2 10 -48 3z"/>
<path d="M815 1521 c-22 -4 -47 -11 -55 -16 -8 -5 -26 -9 -40 -9 -20 -1 -26
-7 -28 -30 -3 -26 -2 -28 23 -22 20 5 25 4 19 -6 -6 -10 -5 -10 7 -2 8 6 39
14 69 18 30 4 63 15 73 24 15 13 22 14 38 4 13 -9 18 -9 17 -1 -2 6 3 14 11
17 8 3 11 0 7 -7 -9 -14 12 -13 78 2 27 7 51 17 53 23 4 13 -198 16 -272 5z"/>
<path d="M300 1509 c0 -5 5 -7 10 -4 6 3 10 8 10 11 0 2 -4 4 -10 4 -5 0 -10
-5 -10 -11z"/>
<path d="M199 1486 c-15 -7 -42 -14 -60 -14 -19 0 -58 -3 -86 -7 -46 -7 -53
-11 -53 -31 0 -21 2 -22 33 -12 17 5 48 13 67 17 50 11 180 52 180 57 0 10
-57 3 -81 -10z"/>
<path d="M1690 1488 c-19 -4 -51 -10 -70 -12 -19 -3 -50 -8 -67 -12 -26 -5
-33 -3 -33 10 0 9 -7 16 -15 16 -8 0 -15 -4 -15 -9 0 -8 -49 -25 -59 -21 -2 1
-7 -4 -12 -11 -4 -7 -18 -14 -31 -14 -13 0 -28 -3 -34 -7 -6 -4 -41 -10 -78
-14 -61 -6 -66 -5 -60 11 6 15 3 17 -17 12 -23 -6 -23 -5 -5 8 35 26 -6 17
-46 -10 -20 -14 -42 -25 -47 -25 -6 0 -11 -4 -11 -10 0 -5 5 -10 10 -10 23 0
7 -21 -20 -26 -16 -4 -30 -10 -30 -15 0 -5 -9 -9 -20 -9 -11 0 -20 5 -20 10 0
6 -5 10 -11 10 -6 0 -9 -7 -5 -15 4 -11 -1 -15 -19 -15 -14 0 -25 4 -25 9 0
12 -91 3 -106 -10 -6 -5 -14 -6 -18 -2 -9 10 -78 4 -92 -8 -9 -7 -42 -14 -86
-18 -5 -1 -8 -6 -8 -12 0 -5 4 -8 9 -5 4 3 17 -1 27 -8 13 -10 23 -11 31 -4
10 8 13 6 13 -4 0 -14 -52 -38 -85 -38 -10 0 -26 -7 -36 -15 -9 -9 -33 -17
-53 -18 -21 -2 -40 -8 -44 -14 -10 -15 -72 -27 -72 -14 0 6 -7 8 -15 5 -8 -4
-15 -12 -15 -19 0 -17 -28 -27 -33 -12 -3 8 -13 4 -27 -11 -15 -16 -25 -20
-30 -13 -9 16 -38 3 -51 -21 -7 -14 -14 -17 -21 -10 -7 7 -27 4 -62 -8 -68
-23 -156 -35 -156 -21 0 5 30 25 68 43 68 33 74 35 104 37 10 0 25 9 35 19 10
10 44 25 76 32 32 7 60 17 63 22 3 4 18 8 34 8 16 0 31 4 34 9 3 5 22 12 41
15 20 4 35 13 35 21 0 14 -36 10 -46 -6 -7 -12 -24 -12 -24 0 0 5 15 15 32 22
l33 14 -30 5 c-20 3 -35 0 -47 -12 -24 -24 -98 -43 -119 -29 -13 7 -19 7 -23
-4 -4 -11 -10 -11 -30 -2 -35 16 -33 24 8 31 22 4 36 13 39 26 3 11 1 20 -4
20 -21 0 -152 -33 -249 -63 l-45 -14 -3 -626 -3 -627 1646 0 c1456 0 1645 2
1645 15 0 20 17 19 28 -1 7 -13 13 -7 32 30 15 31 27 45 36 42 8 -3 14 -1 14
4 0 6 -7 10 -15 10 -8 0 -15 4 -15 9 0 5 -7 12 -16 15 -14 5 -15 4 -5 -8 9
-11 8 -15 -4 -20 -8 -3 -15 -16 -16 -28 -1 -21 -1 -21 -11 5 -8 22 -16 27 -41
27 -107 0 -232 11 -235 20 -2 6 -11 5 -24 -4 -17 -12 -24 -13 -42 -1 -11 7
-29 11 -38 10 -10 -2 -18 3 -18 11 0 8 9 14 19 14 25 0 37 18 21 33 -10 9 -14
9 -17 0 -6 -18 -63 -16 -77 2 -7 9 -31 16 -68 17 -32 1 -52 6 -45 9 16 9 15
61 -1 67 -7 2 -12 0 -12 -5 0 -4 -15 -8 -32 -7 -18 1 -50 2 -70 3 -22 0 -46 9
-56 19 -10 10 -24 16 -30 14 -7 -2 -12 2 -12 8 0 7 -7 10 -15 7 -8 -4 -17 -2
-20 3 -4 6 -13 10 -21 10 -18 0 -46 25 -37 34 21 20 -113 -28 -138 -50 -8 -8
-25 -14 -37 -14 -12 0 -29 -8 -39 -18 -20 -20 -68 -42 -111 -50 -49 -9 -327
-8 -339 1 -9 6 -13 5 -13 -3 0 -10 -3 -10 -15 0 -8 7 -25 10 -40 6 -14 -4 -25
-2 -25 2 0 5 -10 9 -22 8 -13 -1 -26 2 -29 7 -6 8 -43 15 -91 16 -15 1 -34 8
-42 17 -21 21 -54 9 -62 -22 -3 -13 -9 -25 -13 -25 -3 -1 -19 -3 -35 -5 -16
-2 -34 -8 -39 -13 -6 -6 -17 -7 -26 -2 -9 5 -38 9 -65 10 -33 1 -53 7 -62 19
-7 9 -14 12 -14 6 0 -10 -53 -29 -72 -25 -5 0 -8 -4 -8 -10 0 -5 -4 -8 -9 -4
-5 3 -16 -1 -24 -9 -8 -8 -23 -13 -33 -11 -10 2 -25 4 -32 4 -17 1 8 41 26 41
7 0 28 11 46 25 20 15 40 23 49 19 12 -4 18 2 23 21 4 16 11 24 20 21 7 -3 19
1 26 8 17 16 76 28 80 16 2 -6 14 -12 27 -15 28 -5 53 -24 46 -35 -7 -11 58
12 66 23 3 5 9 8 13 8 19 -3 29 0 23 6 -8 7 11 33 24 33 5 0 13 -15 18 -33 5
-17 10 -24 10 -14 1 9 7 17 15 17 8 0 17 8 21 19 4 12 14 18 32 17 14 0 28 5
30 12 3 6 -2 12 -11 12 -9 0 -16 8 -16 20 0 15 7 20 28 20 15 0 33 -5 38 -10
7 -7 16 -6 27 2 12 10 14 21 9 48 -7 31 -12 35 -51 42 -25 4 -76 3 -115 -3
-39 -7 -80 -11 -91 -11 -91 3 -262 0 -318 -7 -38 -4 -70 -3 -73 1 -3 5 -32 6
-66 4 -59 -5 -60 -4 -42 15 9 10 14 22 9 27 -4 4 -10 1 -12 -6 -4 -10 -8 -10
-19 -1 -10 8 -65 12 -174 11 -88 0 -160 3 -160 7 0 22 30 31 105 31 45 0 86 5
92 11 8 8 16 7 31 -2 16 -10 29 -9 69 4 41 13 61 14 117 6 38 -6 82 -8 100 -5
33 6 107 13 223 20 78 5 93 10 93 31 0 19 -21 24 -69 18 -22 -3 -46 -1 -53 5
-9 7 -29 7 -58 2 -69 -14 -98 -12 -118 8 -34 34 -112 38 -112 6 0 -23 -15 -16
-50 22 -28 31 -31 40 -22 55 7 10 12 29 12 42 0 20 5 23 42 24 30 2 49 9 67
27 14 14 22 28 18 32 -10 11 -66 14 -72 5 -3 -5 -15 -7 -26 -4 -20 5 -21 3
-15 -21 6 -23 3 -27 -24 -32 -16 -4 -30 -10 -30 -14 0 -3 -6 -7 -12 -7 -7 0
-24 -3 -38 -7 -20 -6 -22 -5 -10 4 12 8 6 10 -25 8 -22 -1 -45 -8 -50 -15 -6
-8 -39 -15 -80 -18 -39 -3 -105 -7 -147 -10 -67 -5 -77 -4 -72 10 3 8 14 15
24 15 10 0 20 8 23 19 4 15 13 18 51 16 25 -1 46 2 46 6 0 4 16 6 35 4 21 -2
39 3 46 11 6 8 8 14 3 14 -4 0 3 11 16 25 13 14 29 25 35 25 6 0 29 16 51 36
21 20 33 33 27 30 -9 -5 -13 0 -13 13 0 25 6 28 55 34 22 3 45 6 50 7 24 6 33
-1 27 -22 -5 -19 -2 -21 28 -15 18 4 36 7 41 7 5 0 9 6 9 14 0 10 7 12 22 8
14 -3 19 -2 14 6 -4 7 -14 12 -22 12 -8 0 -14 7 -14 16 0 8 4 13 9 9 5 -3 13
0 17 6 5 9 0 10 -16 6 -28 -7 -65 7 -73 27 -5 13 0 16 26 14 17 -1 35 -6 38
-11 4 -6 12 0 19 12 11 22 12 22 25 4 13 -17 14 -17 32 0 11 9 32 17 48 17 27
0 28 0 10 -20 -16 -17 -16 -20 -2 -20 9 0 18 4 22 10 3 5 11 7 18 4 16 -6 55
22 44 32 -4 4 -14 -1 -21 -12 -8 -10 -17 -16 -21 -13 -9 9 6 60 16 54 16 -10
98 -15 104 -6 9 16 45 -1 45 -21 0 -15 4 -18 23 -12 12 4 32 15 45 25 13 10
30 15 38 12 8 -3 14 0 14 7 0 8 12 10 34 7 22 -3 37 0 39 8 3 6 25 12 49 13
23 1 45 7 46 12 3 7 9 7 18 -1 16 -13 99 -6 119 11 6 5 45 14 85 20 72 10 88
15 79 25 -10 9 -264 13 -281 4 -12 -6 -18 -6 -18 0 0 6 -12 6 -32 1 -20 -6
-36 -6 -44 1 -9 8 -16 5 -24 -11 -11 -20 -13 -20 -24 -5 -11 15 -29 16 -167
11 -280 -12 -334 -16 -381 -24 -55 -11 -55 3 0 17 64 18 112 21 112 9 0 -7 6
-4 13 5 6 9 32 18 56 21 24 2 53 13 65 24 21 19 38 24 166 42 67 9 72 10 175
30 33 7 78 15 100 19 44 8 105 32 105 42 0 12 -35 15 -70 7z m-780 -218 c0 -5
-5 -10 -11 -10 -5 0 -7 5 -4 10 3 6 8 10 11 10 2 0 4 -4 4 -10z m-492 -22 c-3
-7 -13 -15 -24 -17 -16 -3 -17 -1 -5 13 16 19 34 21 29 4z m422 0 c0 -4 -3 -8
-7 -8 -5 0 -18 -3 -30 -6 -13 -4 -23 -2 -23 4 0 10 20 18 48 18 6 1 12 -3 12
-8z m-635 -48 c-5 -15 -12 -19 -25 -15 -10 3 -21 1 -25 -5 -9 -15 -25 -12 -25
4 0 8 11 14 27 14 15 0 32 7 37 15 14 21 20 14 11 -13z m1225 10 c0 -4 -12
-13 -26 -20 -21 -12 -27 -12 -34 0 -5 8 -7 17 -5 20 5 8 65 8 65 0z m-400 -19
c0 -12 -29 -23 -42 -15 -6 4 -5 10 3 15 18 11 39 11 39 0z m-85 -32 c-10 -15
-25 -10 -19 6 4 8 10 12 15 9 5 -3 7 -10 4 -15z m-65 -29 c0 -5 -5 -10 -11
-10 -5 0 -7 -5 -3 -11 4 -8 0 -8 -15 0 -11 7 -21 9 -21 6 0 -4 -5 -3 -12 1 -8
5 -6 10 8 15 28 11 54 11 54 -1z m-207 -216 c-3 -9 -9 -12 -12 -7 -3 4 -10 11
-15 16 -5 4 0 7 12 7 15 0 20 -4 15 -16z m-290 -114 c7 -26 -27 -35 -81 -21
-1 1 2 10 8 21 15 27 66 27 73 0z m1227 -550 c0 -5 -7 -10 -16 -10 -8 0 -12 5
-9 10 3 6 10 10 16 10 5 0 9 -4 9 -10z m160 -110 c0 -5 -2 -10 -4 -10 -3 0 -8
5 -11 10 -3 6 -1 10 4 10 6 0 11 -4 11 -10z"/>
<path d="M1322 1476 c-18 -6 -30 -14 -27 -18 7 -7 52 9 70 24 13 11 -3 9 -43
-6z"/>
<path d="M600 1470 c0 -13 11 -13 30 0 12 8 11 10 -7 10 -13 0 -23 -4 -23 -10z"/>
<path d="M590 1436 c-5 -5 -23 -9 -41 -8 -38 1 -65 -20 -46 -36 8 -7 20 -6 37
3 14 8 32 14 41 15 8 0 33 9 55 19 l39 19 -38 -1 c-20 0 -41 -5 -47 -11z"/>
<path d="M275 1420 c-4 -6 -11 -8 -16 -4 -5 3 -24 1 -42 -5 -18 -6 -55 -13
-82 -16 -28 -3 -69 -8 -93 -11 l-42 -7 0 -45 c0 -35 3 -42 13 -34 7 6 25 9 40
8 15 -2 30 1 33 5 3 5 18 9 33 9 15 0 51 11 79 25 29 14 58 25 66 25 8 0 21
14 30 30 12 25 12 30 1 30 -8 0 -17 -5 -20 -10z"/>
<path d="M745 1391 c-22 -10 -52 -21 -67 -25 -16 -3 -28 -11 -28 -16 0 -6 -6
-10 -14 -10 -7 0 -19 -7 -26 -15 -7 -8 -23 -15 -36 -15 -14 0 -24 -6 -24 -15
0 -18 6 -15 130 47 52 26 101 48 108 48 6 0 12 5 12 10 0 14 -9 12 -55 -9z"/>
<path d="M1720 1399 c-30 -5 -72 -10 -92 -10 -38 0 -57 -12 -38 -24 6 -4 8
-10 5 -15 -15 -23 86 -38 105 -15 8 9 29 15 56 15 27 0 46 5 51 14 5 8 19 19
33 25 l25 10 -25 1 c-14 0 -34 2 -45 4 -11 2 -45 0 -75 -5z m45 -29 c-3 -5
-10 -10 -16 -10 -5 0 -9 5 -9 10 0 6 7 10 16 10 8 0 12 -4 9 -10z"/>
<path d="M1870 1390 c0 -5 5 -10 10 -10 6 0 10 5 10 10 0 6 -4 10 -10 10 -5 0
-10 -4 -10 -10z"/>
<path d="M1520 1370 c0 -5 5 -10 10 -10 6 0 10 5 10 10 0 6 -4 10 -10 10 -5 0
-10 -4 -10 -10z"/>
<path d="M1310 1340 c0 -5 5 -10 11 -10 5 0 7 5 4 10 -3 6 -8 10 -11 10 -2 0
-4 -4 -4 -10z"/>
<path d="M1995 1280 c-7 -12 2 -12 30 0 19 8 19 9 -2 9 -12 1 -25 -3 -28 -9z"/>
<path d="M1315 1170 c-3 -5 -2 -10 4 -10 5 0 13 5 16 10 3 6 2 10 -4 10 -5 0
-13 -4 -16 -10z"/>
<path d="M5185 1150 c-12 -4 -27 -15 -35 -25 -10 -12 -5 -11 23 5 20 12 37 24
37 26 0 5 0 5 -25 -6z"/>
<path d="M14797 1143 c-15 -14 -6 -23 22 -23 37 0 49 16 18 24 -28 7 -32 7
-40 -1z"/>
<path d="M7855 1110 c3 -5 8 -10 11 -10 2 0 4 5 4 10 0 6 -5 10 -11 10 -5 0
-7 -4 -4 -10z"/>
<path d="M1361 1100 c-18 -4 -36 -12 -40 -17 -3 -6 -15 -15 -26 -21 -29 -16
-2 -15 61 4 33 9 54 21 54 30 0 15 0 15 -49 4z"/>
<path d="M5100 1100 c-8 -5 -11 -12 -7 -16 4 -4 15 0 24 9 18 18 8 23 -17 7z"/>
<path d="M1110 1075 c-4 -11 -6 -22 -4 -24 8 -8 64 22 64 35 0 22 -51 13 -60
-11z"/>
<path d="M1285 1080 c-3 -5 -1 -10 4 -10 6 0 11 5 11 10 0 6 -2 10 -4 10 -3 0
-8 -4 -11 -10z"/>
<path d="M5037 1055 c-15 -14 -27 -28 -27 -31 0 -10 58 26 63 41 9 22 -5 18
-36 -10z"/>
<path d="M1480 1051 c0 -7 -5 -9 -10 -6 -6 3 -13 0 -16 -9 -3 -8 -12 -12 -20
-9 -9 3 -14 -1 -14 -12 0 -12 6 -16 20 -12 11 3 20 1 20 -4 0 -5 -3 -9 -7 -10
-30 -3 -48 -9 -51 -18 -2 -6 -17 -11 -33 -11 -16 0 -29 -4 -29 -10 0 -10 16
-15 35 -10 6 2 33 5 60 7 28 3 57 11 65 19 10 10 11 14 2 14 -7 0 -10 5 -7 10
3 6 1 10 -4 10 -8 0 -7 7 1 20 10 15 10 22 0 32 -9 9 -12 9 -12 -1z"/>
<path d="M6830 1040 c0 -5 4 -10 9 -10 6 0 13 5 16 10 3 6 -1 10 -9 10 -9 0
-16 -4 -16 -10z"/>
<path d="M885 1020 c-3 -5 -2 -10 4 -10 5 0 13 5 16 10 3 6 2 10 -4 10 -5 0
-13 -4 -16 -10z"/>
<path d="M1271 968 l-33 -21 23 -13 c14 -7 25 -8 27 -3 2 5 10 9 18 9 17 0 19
17 2 23 -8 3 -6 6 5 6 9 1 17 6 17 11 0 15 -21 11 -59 -12z"/>
<path d="M1350 986 c0 -2 7 -7 16 -10 8 -3 12 -2 9 4 -6 10 -25 14 -25 6z"/>
<path d="M1211 941 c-8 -6 -9 -11 -3 -15 6 -3 14 -1 17 5 9 14 2 20 -14 10z"/>
<path d="M1750 940 c0 -5 9 -10 20 -10 11 0 20 5 20 10 0 6 -9 10 -20 10 -11
0 -20 -4 -20 -10z"/>
<path d="M14719 673 c-19 -5 -49 -54 -49 -81 0 -15 9 -21 46 -26 85 -11 98 -7
109 36 6 22 1 32 -20 53 -26 23 -49 28 -86 18z"/>
<path d="M13799 573 c14 -27 50 -53 56 -43 9 15 -26 60 -47 60 -15 0 -17 -4
-9 -17z"/>
<path d="M2746 503 c-4 -5 -11 -8 -14 -9 -31 -2 -73 -18 -86 -32 -14 -16 -12
-17 34 -16 27 2 58 8 69 14 12 6 21 8 21 5 0 -2 9 3 20 12 14 13 16 19 7 25
-15 10 -41 10 -51 1z"/>
<path d="M2940 495 c0 -8 7 -15 15 -15 8 0 15 7 15 15 0 8 -7 15 -15 15 -8 0
-15 -7 -15 -15z"/>
<path d="M4221 480 c-18 -4 -47 -18 -64 -31 -21 -15 -43 -22 -68 -20 -30 1
-44 -5 -75 -34 -43 -41 -378 -266 -469 -315 -33 -18 -71 -41 -85 -50 -14 -9
-32 -20 -40 -23 -8 -3 132 -6 312 -6 179 -1 333 2 342 5 17 7 22 44 6 44 -18
0 -11 40 8 41 15 0 15 1 -2 8 -14 5 -16 10 -8 15 7 4 16 5 21 1 5 -3 12 -1 16
5 3 6 -4 10 -17 10 -20 0 -24 5 -23 33 2 44 9 53 53 73 47 22 45 20 47 47 1
12 8 22 17 21 10 -1 13 7 10 27 -4 30 27 109 56 142 16 18 14 19 -37 7z m-161
-415 c0 -14 -4 -25 -10 -25 -5 0 -10 11 -10 25 0 14 5 25 10 25 6 0 10 -11 10
-25z"/>
<path d="M3088 466 c-22 -16 -23 -26 -3 -26 8 0 15 -3 15 -7 0 -5 14 -9 30
-10 28 -2 30 -1 19 20 -11 21 -28 37 -39 37 -3 -1 -13 -7 -22 -14z"/>
<path d="M3228 453 c-14 -2 -34 -15 -43 -29 -9 -14 -19 -22 -24 -20 -4 3 -13
-11 -19 -31 -9 -31 -9 -38 5 -49 23 -16 130 -10 168 10 17 9 36 16 43 16 23 0
12 35 -21 66 -34 33 -64 43 -109 37z"/>
<path d="M1818 439 c-29 -16 -10 -39 33 -39 35 0 39 3 39 25 0 21 -5 25 -27
25 -16 0 -36 -5 -45 -11z"/>
<path d="M2595 440 c-3 -5 -1 -10 4 -10 6 0 11 5 11 10 0 6 -2 10 -4 10 -3 0
-8 -4 -11 -10z"/>
<path d="M1700 434 c0 -4 8 -12 17 -19 19 -14 56 -8 50 9 -4 12 -67 22 -67 10z"/>
<path d="M4660 409 c0 -5 5 -7 10 -4 6 3 10 8 10 11 0 2 -4 4 -10 4 -5 0 -10
-5 -10 -11z"/>
<path d="M3440 347 c0 -11 3 -17 6 -14 4 4 24 -3 45 -15 33 -18 41 -19 68 -8
43 17 39 35 -11 49 -66 17 -108 12 -108 -12z"/>
<path d="M2585 340 c-3 -6 1 -7 9 -4 18 7 21 14 7 14 -6 0 -13 -4 -16 -10z"/>
<path d="M3338 283 c7 -3 16 -2 19 1 4 3 -2 6 -13 5 -11 0 -14 -3 -6 -6z"/>
<path d="M1100 260 c0 -5 7 -10 16 -10 8 0 12 5 9 10 -3 6 -10 10 -16 10 -5 0
-9 -4 -9 -10z"/>
<path d="M3310 260 c0 -5 5 -10 11 -10 5 0 7 5 4 10 -3 6 -8 10 -11 10 -2 0
-4 -4 -4 -10z"/>
<path d="M11585 170 c3 -5 14 -10 23 -10 15 0 15 2 2 10 -20 13 -33 13 -25 0z"/>
<path d="M3020 160 c0 -5 5 -10 11 -10 5 0 7 5 4 10 -3 6 -8 10 -11 10 -2 0
-4 -4 -4 -10z"/>
<path d="M3090 160 c-8 -5 -10 -10 -5 -10 6 0 4 -4 -3 -9 -10 -6 -8 -10 8 -14
16 -4 20 -2 16 9 -3 8 -1 14 4 14 6 0 10 5 10 10 0 13 -11 13 -30 0z"/>
<path d="M11790 146 c0 -8 -6 -16 -12 -18 -15 -5 16 -58 33 -58 6 0 8 4 5 9
-4 5 -1 11 6 13 8 3 8 12 -3 36 -14 33 -29 42 -29 18z"/>
<path d="M4360 100 c0 -5 5 -10 10 -10 6 0 10 5 10 10 0 6 -4 10 -10 10 -5 0
-10 -4 -10 -10z"/>
<path d="M11644 69 c3 -17 6 -40 6 -50 0 -15 7 -19 36 -19 22 0 33 4 29 10 -4
6 -15 8 -26 5 -13 -4 -19 -2 -19 8 0 9 5 17 12 19 8 3 6 13 -8 31 -26 35 -38
34 -30 -4z"/>
<path d="M4334 50 c0 -13 4 -16 10 -10 7 7 7 13 0 20 -6 6 -10 3 -10 -10z"/>
<path d="M4360 50 c0 -19 3 -21 12 -12 9 9 9 15 0 24 -9 9 -12 7 -12 -12z"/>
<path d="M4290 50 c0 -5 7 -10 15 -10 8 0 15 5 15 10 0 6 -7 10 -15 10 -8 0
-15 -4 -15 -10z"/>
<path d="M16540 16 c0 -11 10 -16 31 -16 38 0 35 24 -4 28 -19 2 -27 -1 -27
-12z"/>
</g>
</svg>
